<?xml version="1.0" encoding="utf-8"?>
<!-- Generator: Adobe Illustrator 27.7.0, SVG Export Plug-In . SVG Version: 6.00 Build 0)  -->
<svg version="1.1" id="레이어_1" xmlns="http://www.w3.org/2000/svg" xmlns:xlink="http://www.w3.org/1999/xlink" x="0px"
	 y="0px" viewBox="0 0 379.37 95.01" style="enable-background:new 0 0 379.37 95.01;" xml:space="preserve">
<style type="text/css">
	.st0{fill:none;stroke:#595757;stroke-width:0.75;stroke-miterlimit:10;}
	.st1{fill:none;stroke:#595757;stroke-width:0.75;stroke-miterlimit:10;stroke-dasharray:2.8978,2.8978;}
	.st2{fill:none;stroke:#595757;stroke-width:0.75;stroke-miterlimit:10;stroke-dasharray:3.2218,3.2218;}
	.st3{fill:none;stroke:#595757;stroke-width:0.75;stroke-miterlimit:10;stroke-dasharray:3.1656,3.1656;}
	.st4{fill:none;stroke:#000000;stroke-width:0.75;stroke-miterlimit:10;}
	.st5{fill:#A3BFC7;}
	.st6{fill:#13AE67;}
	.st7{fill:#E18274;}
	.st8{fill:#129A7B;}
	.st9{fill:#E9CA7F;}
	.st10{fill:#B43A5E;}
	.st11{fill:#E59127;}
	.st12{fill:#54678E;}
	.st13{fill:#F1F2F0;}
	.st14{fill:#F6BB8B;}
	.st15{fill:#946040;}
	.st16{fill:#8CCEC4;}
	.st17{fill:#F0EC7B;}
	.st18{fill:#F3ABC4;}
	.st19{fill:#DE6563;}
	.st20{fill:none;stroke:#EB6767;stroke-width:0.75;stroke-miterlimit:10;stroke-dasharray:3.0685,3.0685;}
	.st21{fill:none;stroke:#EB6767;stroke-width:0.75;stroke-miterlimit:10;stroke-dasharray:3.089,3.089;}
</style>
<g>
	<g>
		<line class="st0" x1="42.24" y1="62.04" x2="43.74" y2="62.04"/>
		<line class="st1" x1="46.64" y1="62.04" x2="74.17" y2="62.04"/>
		<line class="st0" x1="75.62" y1="62.04" x2="77.12" y2="62.04"/>
	</g>
</g>
<g>
	<g>
		<line class="st0" x1="154.34" y1="62.04" x2="155.84" y2="62.04"/>
		<line class="st1" x1="158.74" y1="62.04" x2="186.27" y2="62.04"/>
		<line class="st0" x1="187.72" y1="62.04" x2="189.22" y2="62.04"/>
	</g>
</g>
<g>
	<g>
		<line class="st0" x1="278.96" y1="62.04" x2="280.46" y2="62.04"/>
		<line class="st2" x1="283.68" y1="62.04" x2="294.96" y2="62.04"/>
		<line class="st0" x1="296.57" y1="62.04" x2="298.07" y2="62.04"/>
	</g>
</g>
<g>
	<g>
		<line class="st0" x1="29.45" y1="70.9" x2="30.95" y2="70.9"/>
		<line class="st3" x1="34.12" y1="70.9" x2="57.86" y2="70.9"/>
		<line class="st0" x1="59.44" y1="70.9" x2="60.94" y2="70.9"/>
	</g>
</g>
<g>
	<g>
		<line class="st4" x1="5.7" y1="53.32" x2="365.05" y2="53.32"/>
		<g>
			<path d="M363.7,53.32l-1.64-2.7l0.09-0.06l4.41,1.75c1.54,0.34,3.07,0.68,4.61,1.01c-1.54,0.34-3.07,0.68-4.61,1.01l-4.41,1.75
				l-0.09-0.05L363.7,53.32z"/>
		</g>
	</g>
</g>
<line class="st4" x1="60.52" y1="47.65" x2="60.52" y2="75.19"/>
<line class="st4" x1="188.43" y1="47.65" x2="188.43" y2="75.19"/>
<line class="st4" x1="279.8" y1="47.65" x2="279.8" y2="75.19"/>
<g>
	<path d="M55.89,43.29c-0.4-0.17-0.72-0.41-0.96-0.73c-0.23-0.31-0.36-0.67-0.38-1.08h0.98c0.02,0.24,0.1,0.45,0.26,0.63
		c0.16,0.18,0.36,0.32,0.61,0.42c0.25,0.1,0.54,0.15,0.84,0.15c0.34,0,0.64-0.06,0.91-0.17c0.27-0.12,0.48-0.28,0.63-0.48
		c0.15-0.21,0.23-0.44,0.23-0.71c0-0.29-0.07-0.54-0.22-0.76c-0.15-0.22-0.36-0.39-0.65-0.51s-0.62-0.18-1.02-0.18H56.5v-0.85h0.63
		c0.31,0,0.59-0.06,0.83-0.17s0.43-0.27,0.57-0.47c0.13-0.2,0.2-0.43,0.2-0.7c0-0.25-0.06-0.48-0.18-0.68
		c-0.12-0.2-0.29-0.35-0.51-0.46c-0.22-0.11-0.47-0.16-0.76-0.16c-0.28,0-0.54,0.05-0.78,0.15s-0.44,0.24-0.6,0.43
		c-0.15,0.18-0.24,0.4-0.25,0.65h-0.93c0.02-0.4,0.14-0.76,0.38-1.07c0.23-0.31,0.54-0.56,0.93-0.73c0.39-0.17,0.81-0.26,1.27-0.26
		c0.48,0,0.9,0.09,1.26,0.28c0.36,0.19,0.64,0.44,0.83,0.76s0.29,0.67,0.28,1.04c0,0.44-0.11,0.81-0.35,1.12s-0.56,0.52-0.97,0.64
		v0.05c0.33,0.05,0.62,0.17,0.87,0.34c0.25,0.17,0.43,0.39,0.56,0.65c0.13,0.26,0.19,0.56,0.19,0.88c0,0.42-0.11,0.8-0.35,1.14
		c-0.24,0.34-0.56,0.6-0.98,0.8c-0.41,0.19-0.87,0.29-1.38,0.29C56.75,43.55,56.29,43.46,55.89,43.29z"/>
	<path d="M62.44,43.08c-0.41-0.31-0.72-0.77-0.93-1.36c-0.21-0.6-0.32-1.32-0.32-2.16c0-0.83,0.11-1.55,0.32-2.15
		c0.21-0.6,0.53-1.06,0.93-1.37s0.9-0.47,1.46-0.47s1.05,0.16,1.46,0.47s0.72,0.77,0.93,1.37c0.21,0.6,0.32,1.32,0.32,2.15
		c0,0.85-0.11,1.57-0.32,2.16c-0.21,0.6-0.52,1.05-0.93,1.36s-0.9,0.47-1.47,0.47C63.34,43.55,62.85,43.39,62.44,43.08z
		 M64.87,42.33c0.27-0.24,0.47-0.6,0.61-1.07s0.21-1.04,0.21-1.7s-0.07-1.24-0.21-1.71s-0.34-0.83-0.61-1.08s-0.58-0.37-0.96-0.37
		s-0.69,0.12-0.96,0.37c-0.27,0.25-0.47,0.61-0.61,1.08c-0.14,0.47-0.21,1.04-0.21,1.71s0.07,1.23,0.21,1.7s0.34,0.83,0.61,1.07
		c0.27,0.24,0.59,0.37,0.96,0.37C64.28,42.69,64.6,42.57,64.87,42.33z"/>
</g>
<g>
	<path d="M182.95,43.44h-0.98v-6.77h-0.04l-1.89,1.26v-0.98l1.93-1.29h0.98V43.44z"/>
	<path d="M186.1,43.08c-0.41-0.31-0.72-0.77-0.93-1.36c-0.21-0.6-0.32-1.32-0.32-2.16c0-0.83,0.11-1.55,0.32-2.15
		c0.21-0.6,0.53-1.06,0.93-1.37s0.9-0.47,1.46-0.47s1.05,0.16,1.46,0.47s0.72,0.77,0.93,1.37c0.21,0.6,0.32,1.32,0.32,2.15
		c0,0.85-0.11,1.57-0.32,2.16c-0.21,0.6-0.52,1.05-0.93,1.36s-0.9,0.47-1.47,0.47C186.99,43.55,186.5,43.39,186.1,43.08z
		 M188.52,42.33c0.27-0.24,0.47-0.6,0.61-1.07s0.21-1.04,0.21-1.7s-0.07-1.24-0.21-1.71s-0.34-0.83-0.61-1.08s-0.58-0.37-0.96-0.37
		s-0.69,0.12-0.96,0.37c-0.27,0.25-0.47,0.61-0.61,1.08c-0.14,0.47-0.21,1.04-0.21,1.71s0.07,1.23,0.21,1.7s0.34,0.83,0.61,1.07
		c0.27,0.24,0.59,0.37,0.96,0.37C187.94,42.69,188.26,42.57,188.52,42.33z"/>
	<path d="M192.65,43.08c-0.41-0.31-0.72-0.77-0.93-1.36c-0.21-0.6-0.32-1.32-0.32-2.16c0-0.83,0.11-1.55,0.32-2.15
		c0.21-0.6,0.53-1.06,0.93-1.37s0.9-0.47,1.46-0.47s1.05,0.16,1.46,0.47s0.72,0.77,0.93,1.37c0.21,0.6,0.32,1.32,0.32,2.15
		c0,0.85-0.11,1.57-0.32,2.16c-0.21,0.6-0.52,1.05-0.93,1.36s-0.9,0.47-1.47,0.47C193.55,43.55,193.06,43.39,192.65,43.08z
		 M195.07,42.33c0.27-0.24,0.47-0.6,0.61-1.07s0.21-1.04,0.21-1.7s-0.07-1.24-0.21-1.71s-0.34-0.83-0.61-1.08s-0.58-0.37-0.96-0.37
		s-0.69,0.12-0.96,0.37c-0.27,0.25-0.47,0.61-0.61,1.08c-0.14,0.47-0.21,1.04-0.21,1.71s0.07,1.23,0.21,1.7s0.34,0.83,0.61,1.07
		c0.27,0.24,0.59,0.37,0.96,0.37C194.49,42.69,194.81,42.57,195.07,42.33z"/>
</g>
<g>
	<path d="M274.31,43.44h-0.98v-6.77h-0.04l-1.89,1.26v-0.98l1.93-1.29h0.98V43.44z"/>
	<path d="M277.66,43.28c-0.38-0.18-0.68-0.42-0.9-0.74c-0.22-0.31-0.34-0.67-0.36-1.06h0.93c0.02,0.23,0.11,0.44,0.26,0.62
		c0.15,0.18,0.34,0.33,0.57,0.44c0.23,0.11,0.49,0.16,0.76,0.16c0.33,0,0.63-0.08,0.89-0.23c0.26-0.15,0.47-0.36,0.62-0.62
		s0.23-0.55,0.23-0.88c0-0.33-0.08-0.63-0.23-0.9c-0.16-0.27-0.37-0.48-0.64-0.63c-0.27-0.15-0.58-0.23-0.93-0.23
		c-0.69-0.01-1.17,0.22-1.45,0.7h-0.93l0.55-4.25h4.21v0.86h-3.41l-0.29,2.28h0.08c0.17-0.14,0.39-0.25,0.64-0.33
		c0.25-0.08,0.51-0.12,0.78-0.12c0.49,0,0.93,0.11,1.32,0.34c0.39,0.22,0.7,0.53,0.92,0.93s0.34,0.85,0.34,1.34
		c0,0.49-0.12,0.94-0.35,1.33c-0.23,0.39-0.55,0.7-0.96,0.92s-0.87,0.33-1.38,0.33C278.46,43.55,278.04,43.46,277.66,43.28z"/>
	<path d="M284.02,43.08c-0.41-0.31-0.72-0.77-0.93-1.36s-0.32-1.32-0.32-2.16c0-0.83,0.11-1.55,0.32-2.15
		c0.21-0.6,0.53-1.06,0.93-1.37s0.89-0.47,1.46-0.47c0.57,0,1.05,0.16,1.46,0.47s0.72,0.77,0.93,1.37c0.21,0.6,0.32,1.32,0.32,2.15
		c0,0.85-0.11,1.57-0.32,2.16c-0.21,0.6-0.52,1.05-0.93,1.36s-0.9,0.47-1.47,0.47C284.92,43.55,284.43,43.39,284.02,43.08z
		 M286.45,42.33c0.26-0.24,0.47-0.6,0.61-1.07s0.21-1.04,0.21-1.7s-0.07-1.24-0.21-1.71s-0.34-0.83-0.61-1.08
		c-0.27-0.25-0.58-0.37-0.96-0.37c-0.37,0-0.69,0.12-0.96,0.37s-0.47,0.61-0.61,1.08s-0.21,1.04-0.21,1.71s0.07,1.23,0.21,1.7
		s0.34,0.83,0.61,1.07c0.27,0.24,0.59,0.37,0.96,0.37C285.86,42.69,286.18,42.57,286.45,42.33z"/>
</g>
<g>
	<circle class="st5" cx="29.45" cy="70.9" r="2.17"/>
	<path class="st6" d="M29.45,69.23c0.92,0,1.67,0.75,1.67,1.67s-0.75,1.67-1.67,1.67s-1.67-0.75-1.67-1.67S28.53,69.23,29.45,69.23
		 M29.45,68.23c-1.47,0-2.67,1.2-2.67,2.67s1.2,2.67,2.67,2.67c1.47,0,2.67-1.2,2.67-2.67S30.92,68.23,29.45,68.23L29.45,68.23z"/>
</g>
<g>
	<circle class="st7" cx="42.24" cy="62.04" r="2.17"/>
	<g>
		<path d="M42.24,60.37c0.92,0,1.67,0.75,1.67,1.67s-0.75,1.67-1.67,1.67s-1.67-0.75-1.67-1.67S41.32,60.37,42.24,60.37
			 M42.24,59.37c-1.47,0-2.67,1.2-2.67,2.67s1.2,2.67,2.67,2.67c1.47,0,2.67-1.2,2.67-2.67S43.72,59.37,42.24,59.37L42.24,59.37z"/>
	</g>
</g>
<g>
	<circle class="st8" cx="77.12" cy="62.04" r="2.17"/>
	<g>
		<path d="M77.12,60.37c0.92,0,1.67,0.75,1.67,1.67s-0.75,1.67-1.67,1.67s-1.67-0.75-1.67-1.67S76.2,60.37,77.12,60.37 M77.12,59.37
			c-1.47,0-2.67,1.2-2.67,2.67s1.2,2.67,2.67,2.67s2.67-1.2,2.67-2.67S78.59,59.37,77.12,59.37L77.12,59.37z"/>
	</g>
</g>
<g>
	<circle class="st9" cx="151.88" cy="62.04" r="2.17"/>
	<g>
		<path d="M151.88,60.37c0.92,0,1.67,0.75,1.67,1.67s-0.75,1.67-1.67,1.67s-1.67-0.75-1.67-1.67S150.96,60.37,151.88,60.37
			 M151.88,59.37c-1.47,0-2.67,1.2-2.67,2.67s1.2,2.67,2.67,2.67s2.67-1.2,2.67-2.67S153.36,59.37,151.88,59.37L151.88,59.37z"/>
	</g>
</g>
<g>
	<circle class="st10" cx="188.43" cy="62.04" r="2.17"/>
	<g>
		<path class="st6" d="M188.43,60.37c0.92,0,1.67,0.75,1.67,1.67s-0.75,1.67-1.67,1.67c-0.92,0-1.67-0.75-1.67-1.67
			S187.51,60.37,188.43,60.37 M188.43,59.37c-1.47,0-2.67,1.2-2.67,2.67s1.2,2.67,2.67,2.67s2.67-1.2,2.67-2.67
			S189.9,59.37,188.43,59.37L188.43,59.37z"/>
	</g>
</g>
<g>
	<circle class="st11" cx="279.8" cy="62.04" r="2.17"/>
	<g>
		<path d="M279.8,60.37c0.92,0,1.67,0.75,1.67,1.67s-0.75,1.67-1.67,1.67c-0.92,0-1.67-0.75-1.67-1.67S278.87,60.37,279.8,60.37
			 M279.8,59.37c-1.47,0-2.67,1.2-2.67,2.67s1.2,2.67,2.67,2.67c1.47,0,2.67-1.2,2.67-2.67S281.27,59.37,279.8,59.37L279.8,59.37z"
			/>
	</g>
</g>
<g>
	<circle class="st12" cx="279.8" cy="69.23" r="2.17"/>
	<g>
		<path d="M279.8,67.56c0.92,0,1.67,0.75,1.67,1.67s-0.75,1.67-1.67,1.67c-0.92,0-1.67-0.75-1.67-1.67S278.87,67.56,279.8,67.56
			 M279.8,66.56c-1.47,0-2.67,1.2-2.67,2.67s1.2,2.67,2.67,2.67c1.47,0,2.67-1.2,2.67-2.67S281.27,66.56,279.8,66.56L279.8,66.56z"
			/>
	</g>
</g>
<g>
	<circle class="st13" cx="298.07" cy="62.04" r="2.17"/>
	<g>
		<path class="st6" d="M298.07,60.37c0.92,0,1.67,0.75,1.67,1.67s-0.75,1.67-1.67,1.67c-0.92,0-1.67-0.75-1.67-1.67
			S297.15,60.37,298.07,60.37 M298.07,59.37c-1.47,0-2.67,1.2-2.67,2.67s1.2,2.67,2.67,2.67c1.47,0,2.67-1.2,2.67-2.67
			S299.54,59.37,298.07,59.37L298.07,59.37z"/>
	</g>
</g>
<g>
	<path class="st14" d="M63.01,32.47L63.01,32.47c-0.55-0.08-0.93-0.59-0.85-1.13l3.21-22.87c0.08-0.55,0.59-0.93,1.13-0.85v0
		c0.55,0.08,0.93,0.59,0.85,1.13l-3.21,22.87C64.07,32.17,63.56,32.55,63.01,32.47z"/>
	<path class="st15" d="M64.04,25.2L64.04,25.2c-0.68-0.1-1.16-0.73-1.07-1.42l2.4-17.05c0.1-0.68,0.73-1.16,1.42-1.07l0,0
		c0.68,0.1,1.16,0.73,1.07,1.42l-2.4,17.05C65.36,24.82,64.72,25.3,64.04,25.2z"/>
</g>
<g>
	<path class="st14" d="M58.59,32.5L58.59,32.5c-0.55-0.08-0.93-0.59-0.85-1.13L60.95,8.5c0.08-0.55,0.59-0.93,1.13-0.85l0,0
		c0.55,0.08,0.93,0.59,0.85,1.13l-3.21,22.87C59.65,32.19,59.14,32.58,58.59,32.5z"/>
	<path class="st15" d="M59.61,25.23L59.61,25.23c-0.68-0.1-1.16-0.73-1.07-1.42l2.4-17.05c0.1-0.68,0.73-1.16,1.42-1.07l0,0
		c0.68,0.1,1.16,0.73,1.07,1.42l-2.4,17.05C60.94,24.84,60.3,25.32,59.61,25.23z"/>
	<circle class="st16" cx="61" cy="6.68" r="0.42"/>
	<circle class="st17" cx="62.76" cy="7.46" r="0.42"/>
	<circle class="st16" cx="60.47" cy="11.46" r="0.42"/>
	<circle class="st18" cx="61.45" cy="8.94" r="0.42"/>
	<circle class="st16" cx="59.5" cy="21.38" r="0.42"/>
	<circle class="st16" cx="61.41" cy="18.06" r="0.42"/>
	<circle class="st17" cx="61.84" cy="10.8" r="0.42"/>
	<circle class="st16" cx="61.34" cy="15.51" r="0.42"/>
	<circle class="st17" cx="62.14" cy="12.87" r="0.42"/>
	<circle class="st17" cx="60.09" cy="19.28" r="0.42"/>
	<circle class="st18" cx="60.04" cy="16.6" r="0.42"/>
	<circle class="st16" cx="60.64" cy="13.79" r="0.42"/>
	<circle class="st18" cx="60.47" cy="22.65" r="0.42"/>
	<circle class="st17" cx="58.95" cy="24.01" r="0.42"/>
</g>
<g>
	<path class="st14" d="M53.92,32.49L53.92,32.49c-0.55-0.08-0.93-0.59-0.85-1.13l3.21-22.87c0.08-0.55,0.59-0.93,1.13-0.85l0,0
		c0.55,0.08,0.93,0.59,0.85,1.13l-3.21,22.87C54.98,32.18,54.47,32.57,53.92,32.49z"/>
	<path class="st15" d="M54.94,25.22L54.94,25.22c-0.68-0.1-1.16-0.73-1.07-1.42l2.4-17.05c0.1-0.68,0.73-1.16,1.42-1.07h0
		c0.68,0.1,1.16,0.73,1.07,1.42l-2.4,17.05C56.26,24.83,55.62,25.31,54.94,25.22z"/>
	<path class="st16" d="M56.55,11.13l-1.22,0.12c-0.08,0.01-0.16-0.05-0.17-0.14l0,0c-0.01-0.08,0.05-0.16,0.14-0.17l1.22-0.12
		c0.08-0.01,0.16,0.05,0.17,0.14v0C56.69,11.05,56.63,11.12,56.55,11.13z"/>
	<path class="st17" d="M57.68,8.54l-1-0.72c-0.07-0.05-0.08-0.15-0.04-0.22l0,0c0.05-0.07,0.15-0.08,0.22-0.04l1,0.72
		c0.07,0.05,0.08,0.15,0.04,0.22v0C57.85,8.58,57.75,8.59,57.68,8.54z"/>
	<path class="st18" d="M56.5,10.19l-0.89-0.84c-0.06-0.06-0.06-0.16-0.01-0.22v0c0.06-0.06,0.16-0.06,0.22-0.01l0.89,0.84
		c0.06,0.06,0.06,0.16,0.01,0.22l0,0C56.66,10.24,56.56,10.24,56.5,10.19z"/>
	<path class="st16" d="M58.47,7.17l-0.81-0.92c-0.06-0.06-0.05-0.16,0.01-0.22l0,0c0.06-0.06,0.16-0.05,0.22,0.01l0.81,0.92
		c0.06,0.06,0.05,0.16-0.01,0.22l0,0C58.62,7.24,58.53,7.23,58.47,7.17z"/>
	<path class="st17" d="M57.15,6.7l-1.17,0.38c-0.08,0.03-0.17-0.02-0.19-0.1l0,0c-0.03-0.08,0.02-0.17,0.1-0.19l1.17-0.38
		c0.08-0.03,0.17,0.02,0.19,0.1v0C57.28,6.59,57.24,6.67,57.15,6.7z"/>
	<path class="st18" d="M58.87,8.94L57.7,9.32c-0.08,0.03-0.17-0.02-0.19-0.1l0,0c-0.03-0.08,0.02-0.17,0.1-0.19l1.17-0.38
		c0.08-0.03,0.17,0.02,0.19,0.1l0,0C58.99,8.83,58.95,8.92,58.87,8.94z"/>
	<path class="st16" d="M58.13,10.87l-0.87-0.87c-0.06-0.06-0.06-0.16,0-0.22l0,0c0.06-0.06,0.16-0.06,0.22,0l0.87,0.87
		c0.06,0.06,0.06,0.16,0,0.22l0,0C58.29,10.94,58.19,10.94,58.13,10.87z"/>
	<path class="st17" d="M58.25,11.67l-1.19,0.31c-0.08,0.02-0.17-0.03-0.19-0.11v0c-0.02-0.08,0.03-0.17,0.11-0.19l1.19-0.31
		c0.08-0.02,0.17,0.03,0.19,0.11v0C58.38,11.56,58.33,11.65,58.25,11.67z"/>
	<path class="st18" d="M57.23,13.5l0.12-1.22c0.01-0.08,0.08-0.15,0.17-0.14l0,0c0.08,0.01,0.15,0.08,0.14,0.17l-0.12,1.22
		c-0.01,0.08-0.08,0.15-0.17,0.14l0,0C57.29,13.66,57.23,13.59,57.23,13.5z"/>
	<path class="st16" d="M55.95,13.98l-0.94-0.78c-0.07-0.05-0.07-0.15-0.02-0.22l0,0c0.05-0.07,0.15-0.07,0.22-0.02l0.94,0.78
		c0.07,0.05,0.07,0.15,0.02,0.22l0,0C56.11,14.03,56.02,14.04,55.95,13.98z"/>
	<path class="st17" d="M56.16,18.96l-1.14,0.45c-0.08,0.03-0.17-0.01-0.2-0.09l0,0c-0.03-0.08,0.01-0.17,0.09-0.2l1.14-0.45
		c0.08-0.03,0.17,0.01,0.2,0.09l0,0C56.28,18.84,56.24,18.93,56.16,18.96z"/>
	<path class="st18" d="M56.87,21.28l-0.84-0.89c-0.06-0.06-0.06-0.16,0.01-0.22l0,0c0.06-0.06,0.16-0.06,0.22,0.01l0.84,0.89
		c0.06,0.06,0.06,0.16-0.01,0.22l0,0C57.02,21.34,56.92,21.34,56.87,21.28z"/>
	<path class="st16" d="M55.79,17.62l-1.11,0.52c-0.08,0.04-0.17,0-0.21-0.08l0,0c-0.04-0.08,0-0.17,0.08-0.21l1.11-0.52
		c0.08-0.04,0.17,0,0.21,0.08l0,0C55.9,17.49,55.87,17.58,55.79,17.62z"/>
	<path class="st17" d="M56.7,18.2l0.35-1.18c0.02-0.08,0.11-0.13,0.19-0.1l0,0c0.08,0.02,0.13,0.11,0.1,0.19l-0.35,1.18
		c-0.02,0.08-0.11,0.13-0.19,0.1l0,0C56.72,18.37,56.67,18.28,56.7,18.2z"/>
	<path class="st18" d="M56.62,24.06l-0.93-0.8c-0.06-0.06-0.07-0.15-0.02-0.22l0,0c0.06-0.06,0.15-0.07,0.22-0.02l0.93,0.8
		c0.06,0.06,0.07,0.15,0.02,0.22l0,0C56.79,24.11,56.69,24.12,56.62,24.06z"/>
	<path class="st16" d="M55.34,21.92l-0.58-1.08c-0.04-0.07-0.01-0.17,0.06-0.21l0,0c0.07-0.04,0.17-0.01,0.21,0.06l0.58,1.08
		c0.04,0.07,0.01,0.17-0.06,0.21l0,0C55.48,22.03,55.38,22,55.34,21.92z"/>
	<path class="st17" d="M54.99,22.48l-1.23-0.06c-0.08,0-0.15-0.08-0.15-0.16l0,0c0-0.08,0.08-0.15,0.16-0.15l1.23,0.06
		c0.08,0,0.15,0.08,0.15,0.16l0,0C55.15,22.41,55.07,22.48,54.99,22.48z"/>
	<path class="st18" d="M54.43,24.1l-0.99-0.72c-0.07-0.05-0.08-0.15-0.03-0.22v0c0.05-0.07,0.15-0.08,0.22-0.03l0.99,0.72
		c0.07,0.05,0.08,0.15,0.03,0.22l0,0C54.6,24.13,54.5,24.15,54.43,24.1z"/>
	<path class="st16" d="M57.9,14.76l-1.08,0.58c-0.07,0.04-0.17,0.01-0.21-0.06l0,0c-0.04-0.07-0.01-0.17,0.06-0.21l1.08-0.58
		c0.07-0.04,0.17-0.01,0.21,0.06v0C58,14.62,57.97,14.72,57.9,14.76z"/>
	<path class="st17" d="M56.19,16.77l-1.02-0.68c-0.07-0.05-0.09-0.14-0.04-0.21v0c0.05-0.07,0.14-0.09,0.21-0.04l1.02,0.68
		c0.07,0.05,0.09,0.14,0.04,0.21l0,0C56.36,16.8,56.26,16.82,56.19,16.77z"/>
	<path class="st18" d="M55.6,15.21l-1.07-0.59c-0.07-0.04-0.1-0.14-0.06-0.21v0c0.04-0.07,0.14-0.1,0.21-0.06l1.07,0.59
		c0.07,0.04,0.1,0.14,0.06,0.21l0,0C55.77,15.22,55.68,15.25,55.6,15.21z"/>
</g>
<g>
	<path class="st14" d="M184.24,32.47L184.24,32.47c-0.55-0.08-0.93-0.59-0.85-1.13l3.21-22.87c0.08-0.55,0.59-0.93,1.13-0.85v0
		c0.55,0.08,0.93,0.59,0.85,1.13l-3.21,22.87C185.3,32.17,184.79,32.55,184.24,32.47z"/>
	<path class="st15" d="M185.26,25.2L185.26,25.2c-0.68-0.1-1.16-0.73-1.07-1.42l2.4-17.05c0.1-0.68,0.73-1.16,1.42-1.07l0,0
		c0.68,0.1,1.16,0.73,1.07,1.42l-2.4,17.05C186.59,24.82,185.95,25.3,185.26,25.2z"/>
</g>
<g>
	<path class="st14" d="M179.82,32.5L179.82,32.5c-0.55-0.08-0.93-0.59-0.85-1.13l3.21-22.87c0.08-0.55,0.59-0.93,1.13-0.85v0
		c0.55,0.08,0.93,0.59,0.85,1.13l-3.21,22.87C180.88,32.19,180.37,32.58,179.82,32.5z"/>
	<path class="st15" d="M180.84,25.23L180.84,25.23c-0.68-0.1-1.16-0.73-1.07-1.42l2.4-17.05c0.1-0.68,0.73-1.16,1.42-1.07v0
		c0.68,0.1,1.16,0.73,1.07,1.42l-2.4,17.05C182.16,24.84,181.53,25.32,180.84,25.23z"/>
	<circle class="st16" cx="182.23" cy="6.68" r="0.42"/>
	<circle class="st17" cx="183.99" cy="7.46" r="0.42"/>
	<circle class="st16" cx="181.7" cy="11.46" r="0.42"/>
	<circle class="st18" cx="182.68" cy="8.94" r="0.42"/>
	<circle class="st16" cx="180.73" cy="21.38" r="0.42"/>
	<circle class="st16" cx="182.64" cy="18.06" r="0.42"/>
	<circle class="st17" cx="183.07" cy="10.8" r="0.42"/>
	<circle class="st16" cx="182.57" cy="15.51" r="0.42"/>
	<circle class="st17" cx="183.37" cy="12.87" r="0.42"/>
	<circle class="st17" cx="181.32" cy="19.28" r="0.42"/>
	<circle class="st18" cx="181.27" cy="16.6" r="0.42"/>
	<circle class="st16" cx="181.86" cy="13.79" r="0.42"/>
	<circle class="st18" cx="181.7" cy="22.65" r="0.42"/>
	<circle class="st17" cx="180.18" cy="24.01" r="0.42"/>
</g>
<g>
	<path class="st14" d="M175.15,32.49L175.15,32.49c-0.55-0.08-0.93-0.59-0.85-1.13l3.21-22.87c0.08-0.55,0.59-0.93,1.13-0.85v0
		c0.55,0.08,0.93,0.59,0.85,1.13l-3.21,22.87C176.21,32.18,175.69,32.57,175.15,32.49z"/>
	<path class="st15" d="M176.17,25.22L176.17,25.22c-0.68-0.1-1.16-0.73-1.07-1.42l2.4-17.05c0.1-0.68,0.73-1.16,1.42-1.07l0,0
		c0.68,0.1,1.16,0.73,1.07,1.42l-2.4,17.05C177.49,24.83,176.85,25.31,176.17,25.22z"/>
	<path class="st16" d="M177.77,11.13l-1.22,0.12c-0.08,0.01-0.16-0.05-0.17-0.14l0,0c-0.01-0.08,0.05-0.16,0.14-0.17l1.22-0.12
		c0.08-0.01,0.16,0.05,0.17,0.14v0C177.92,11.05,177.86,11.12,177.77,11.13z"/>
	<path class="st17" d="M178.91,8.54l-1-0.72c-0.07-0.05-0.08-0.15-0.04-0.22l0,0c0.05-0.07,0.15-0.08,0.22-0.04l1,0.72
		c0.07,0.05,0.08,0.15,0.04,0.22v0C179.08,8.58,178.98,8.59,178.91,8.54z"/>
	<path class="st18" d="M177.73,10.19l-0.89-0.84c-0.06-0.06-0.06-0.16-0.01-0.22v0c0.06-0.06,0.16-0.06,0.22-0.01l0.89,0.84
		c0.06,0.06,0.06,0.16,0.01,0.22l0,0C177.89,10.24,177.79,10.24,177.73,10.19z"/>
	<path class="st16" d="M179.7,7.17l-0.81-0.92c-0.06-0.06-0.05-0.16,0.01-0.22l0,0c0.06-0.06,0.16-0.05,0.22,0.01l0.81,0.92
		c0.06,0.06,0.05,0.16-0.01,0.22l0,0C179.85,7.24,179.76,7.23,179.7,7.17z"/>
	<path class="st17" d="M178.38,6.7l-1.17,0.38c-0.08,0.03-0.17-0.02-0.19-0.1l0,0c-0.03-0.08,0.02-0.17,0.1-0.19l1.17-0.38
		c0.08-0.03,0.17,0.02,0.19,0.1v0C178.51,6.59,178.46,6.67,178.38,6.7z"/>
	<path class="st18" d="M180.1,8.94l-1.17,0.38c-0.08,0.03-0.17-0.02-0.19-0.1l0,0c-0.03-0.08,0.02-0.17,0.1-0.19L180,8.65
		c0.08-0.03,0.17,0.02,0.19,0.1v0C180.22,8.83,180.18,8.92,180.1,8.94z"/>
	<path class="st16" d="M179.36,10.87l-0.87-0.87c-0.06-0.06-0.06-0.16,0-0.22l0,0c0.06-0.06,0.16-0.06,0.22,0l0.87,0.87
		c0.06,0.06,0.06,0.16,0,0.22l0,0C179.52,10.94,179.42,10.94,179.36,10.87z"/>
	<path class="st17" d="M179.48,11.67l-1.19,0.31c-0.08,0.02-0.17-0.03-0.19-0.11v0c-0.02-0.08,0.03-0.17,0.11-0.19l1.19-0.31
		c0.08-0.02,0.17,0.03,0.19,0.11v0C179.61,11.56,179.56,11.65,179.48,11.67z"/>
	<path class="st18" d="M178.46,13.5l0.12-1.22c0.01-0.08,0.08-0.15,0.17-0.14l0,0c0.08,0.01,0.15,0.08,0.14,0.17l-0.12,1.22
		c-0.01,0.08-0.08,0.15-0.17,0.14l0,0C178.52,13.66,178.46,13.59,178.46,13.5z"/>
	<path class="st16" d="M177.18,13.98l-0.94-0.78c-0.07-0.05-0.07-0.15-0.02-0.22l0,0c0.05-0.07,0.15-0.07,0.22-0.02l0.94,0.78
		c0.07,0.05,0.07,0.15,0.02,0.22l0,0C177.34,14.03,177.25,14.04,177.18,13.98z"/>
	<path class="st17" d="M177.39,18.96l-1.14,0.45c-0.08,0.03-0.17-0.01-0.2-0.09l0,0c-0.03-0.08,0.01-0.17,0.09-0.2l1.14-0.45
		c0.08-0.03,0.17,0.01,0.2,0.09l0,0C177.51,18.84,177.47,18.93,177.39,18.96z"/>
	<path class="st18" d="M178.1,21.28l-0.84-0.89c-0.06-0.06-0.06-0.16,0.01-0.22l0,0c0.06-0.06,0.16-0.06,0.22,0.01l0.84,0.89
		c0.06,0.06,0.06,0.16-0.01,0.22l0,0C178.25,21.34,178.15,21.34,178.1,21.28z"/>
	<path class="st16" d="M177.02,17.62l-1.11,0.52c-0.08,0.04-0.17,0-0.21-0.08l0,0c-0.04-0.08,0-0.17,0.08-0.21l1.11-0.52
		c0.08-0.04,0.17,0,0.21,0.08l0,0C177.13,17.49,177.1,17.58,177.02,17.62z"/>
	<path class="st17" d="M177.93,18.2l0.35-1.18c0.02-0.08,0.11-0.13,0.19-0.1l0,0c0.08,0.02,0.13,0.11,0.1,0.19l-0.35,1.18
		c-0.02,0.08-0.11,0.13-0.19,0.1l0,0C177.95,18.37,177.9,18.28,177.93,18.2z"/>
	<path class="st18" d="M177.85,24.06l-0.93-0.8c-0.06-0.06-0.07-0.15-0.02-0.22l0,0c0.06-0.06,0.15-0.07,0.22-0.02l0.93,0.8
		c0.06,0.06,0.07,0.15,0.02,0.22l0,0C178.02,24.11,177.92,24.12,177.85,24.06z"/>
	<path class="st16" d="M176.57,21.92l-0.58-1.08c-0.04-0.07-0.01-0.17,0.06-0.21l0,0c0.07-0.04,0.17-0.01,0.21,0.06l0.58,1.08
		c0.04,0.07,0.01,0.17-0.06,0.21l0,0C176.7,22.03,176.61,22,176.57,21.92z"/>
	<path class="st17" d="M176.22,22.48l-1.23-0.06c-0.08,0-0.15-0.08-0.15-0.16l0,0c0-0.08,0.08-0.15,0.16-0.15l1.23,0.06
		c0.08,0,0.15,0.08,0.15,0.16l0,0C176.38,22.41,176.3,22.48,176.22,22.48z"/>
	<path class="st18" d="M175.66,24.1l-0.99-0.72c-0.07-0.05-0.08-0.15-0.03-0.22v0c0.05-0.07,0.15-0.08,0.22-0.03l0.99,0.72
		c0.07,0.05,0.08,0.15,0.03,0.22l0,0C175.83,24.13,175.73,24.15,175.66,24.1z"/>
	<path class="st16" d="M179.13,14.76l-1.08,0.58c-0.07,0.04-0.17,0.01-0.21-0.06l0,0c-0.04-0.07-0.01-0.17,0.06-0.21l1.08-0.58
		c0.07-0.04,0.17-0.01,0.21,0.06v0C179.23,14.62,179.2,14.72,179.13,14.76z"/>
	<path class="st17" d="M177.42,16.77l-1.02-0.68c-0.07-0.05-0.09-0.14-0.04-0.21v0c0.05-0.07,0.14-0.09,0.21-0.04l1.02,0.68
		c0.07,0.05,0.09,0.14,0.04,0.21l0,0C177.59,16.8,177.49,16.82,177.42,16.77z"/>
	<path class="st18" d="M176.83,15.21l-1.07-0.59c-0.07-0.04-0.1-0.14-0.06-0.21v0c0.04-0.07,0.14-0.1,0.21-0.06l1.07,0.59
		c0.07,0.04,0.1,0.14,0.06,0.21l0,0C177,15.22,176.91,15.25,176.83,15.21z"/>
</g>
<g>
	<path class="st14" d="M197.91,32.47L197.91,32.47c-0.55-0.08-0.93-0.59-0.85-1.13l3.21-22.87c0.08-0.55,0.59-0.93,1.13-0.85v0
		c0.55,0.08,0.93,0.59,0.85,1.13l-3.21,22.87C198.97,32.17,198.46,32.55,197.91,32.47z"/>
	<path class="st15" d="M198.94,25.2L198.94,25.2c-0.68-0.1-1.16-0.73-1.07-1.42l2.4-17.05c0.1-0.68,0.73-1.16,1.42-1.07l0,0
		c0.68,0.1,1.16,0.73,1.07,1.42l-2.4,17.05C200.26,24.82,199.62,25.3,198.94,25.2z"/>
</g>
<g>
	<path class="st14" d="M193.49,32.5L193.49,32.5c-0.55-0.08-0.93-0.59-0.85-1.13l3.21-22.87c0.08-0.55,0.59-0.93,1.13-0.85v0
		c0.55,0.08,0.93,0.59,0.85,1.13l-3.21,22.87C194.55,32.19,194.04,32.58,193.49,32.5z"/>
	<path class="st15" d="M194.51,25.23L194.51,25.23c-0.68-0.1-1.16-0.73-1.07-1.42l2.4-17.05c0.1-0.68,0.73-1.16,1.42-1.07v0
		c0.68,0.1,1.16,0.73,1.07,1.42l-2.4,17.05C195.84,24.84,195.2,25.32,194.51,25.23z"/>
	<circle class="st16" cx="195.9" cy="6.68" r="0.42"/>
	<circle class="st17" cx="197.66" cy="7.46" r="0.42"/>
	<circle class="st16" cx="195.37" cy="11.46" r="0.42"/>
	<circle class="st18" cx="196.35" cy="8.94" r="0.42"/>
	<circle class="st16" cx="194.4" cy="21.38" r="0.42"/>
	<circle class="st16" cx="196.31" cy="18.06" r="0.42"/>
	<circle class="st17" cx="196.74" cy="10.8" r="0.42"/>
	<circle class="st16" cx="196.24" cy="15.51" r="0.42"/>
	<circle class="st17" cx="197.04" cy="12.87" r="0.42"/>
	<circle class="st17" cx="194.99" cy="19.28" r="0.42"/>
	<circle class="st18" cx="194.94" cy="16.6" r="0.42"/>
	<circle class="st16" cx="195.54" cy="13.79" r="0.42"/>
	<circle class="st18" cx="195.37" cy="22.65" r="0.42"/>
	<circle class="st17" cx="193.85" cy="24.01" r="0.42"/>
</g>
<g>
	<path class="st14" d="M188.82,32.49L188.82,32.49c-0.55-0.08-0.93-0.59-0.85-1.13l3.21-22.87c0.08-0.55,0.59-0.93,1.13-0.85l0,0
		c0.55,0.08,0.93,0.59,0.85,1.13l-3.21,22.87C189.88,32.18,189.37,32.57,188.82,32.49z"/>
	<path class="st15" d="M189.84,25.22L189.84,25.22c-0.68-0.1-1.16-0.73-1.07-1.42l2.4-17.05c0.1-0.68,0.73-1.16,1.42-1.07h0
		c0.68,0.1,1.16,0.73,1.07,1.42l-2.4,17.05C191.16,24.83,190.52,25.31,189.84,25.22z"/>
	<path class="st16" d="M191.45,11.13l-1.22,0.12c-0.08,0.01-0.16-0.05-0.17-0.14l0,0c-0.01-0.08,0.05-0.16,0.14-0.17l1.22-0.12
		c0.08-0.01,0.16,0.05,0.17,0.14v0C191.59,11.05,191.53,11.12,191.45,11.13z"/>
	<path class="st17" d="M192.58,8.54l-1-0.72c-0.07-0.05-0.08-0.15-0.04-0.22h0c0.05-0.07,0.15-0.08,0.22-0.04l1,0.72
		c0.07,0.05,0.08,0.15,0.04,0.22v0C192.75,8.58,192.65,8.59,192.58,8.54z"/>
	<path class="st18" d="M191.4,10.19l-0.89-0.84c-0.06-0.06-0.06-0.16-0.01-0.22v0c0.06-0.06,0.16-0.06,0.22-0.01l0.89,0.84
		c0.06,0.06,0.06,0.16,0.01,0.22l0,0C191.56,10.24,191.46,10.24,191.4,10.19z"/>
	<path class="st16" d="M193.37,7.17l-0.81-0.92c-0.06-0.06-0.05-0.16,0.01-0.22l0,0c0.06-0.06,0.16-0.05,0.22,0.01l0.81,0.92
		c0.06,0.06,0.05,0.16-0.01,0.22l0,0C193.52,7.24,193.43,7.23,193.37,7.17z"/>
	<path class="st17" d="M192.05,6.7l-1.17,0.38c-0.08,0.03-0.17-0.02-0.19-0.1l0,0c-0.03-0.08,0.02-0.17,0.1-0.19l1.17-0.38
		c0.08-0.03,0.17,0.02,0.19,0.1v0C192.18,6.59,192.14,6.67,192.05,6.7z"/>
	<path class="st18" d="M193.77,8.94l-1.17,0.38c-0.08,0.03-0.17-0.02-0.19-0.1l0,0c-0.03-0.08,0.02-0.17,0.1-0.19l1.17-0.38
		c0.08-0.03,0.17,0.02,0.19,0.1v0C193.89,8.83,193.85,8.92,193.77,8.94z"/>
	<path class="st16" d="M193.03,10.87l-0.87-0.87c-0.06-0.06-0.06-0.16,0-0.22l0,0c0.06-0.06,0.16-0.06,0.22,0l0.87,0.87
		c0.06,0.06,0.06,0.16,0,0.22l0,0C193.19,10.94,193.09,10.94,193.03,10.87z"/>
	<path class="st17" d="M193.15,11.67l-1.19,0.31c-0.08,0.02-0.17-0.03-0.19-0.11v0c-0.02-0.08,0.03-0.17,0.11-0.19l1.19-0.31
		c0.08-0.02,0.17,0.03,0.19,0.11v0C193.28,11.56,193.23,11.65,193.15,11.67z"/>
	<path class="st18" d="M192.13,13.5l0.12-1.22c0.01-0.08,0.08-0.15,0.17-0.14l0,0c0.08,0.01,0.15,0.08,0.14,0.17l-0.12,1.22
		c-0.01,0.08-0.08,0.15-0.17,0.14l0,0C192.19,13.66,192.13,13.59,192.13,13.5z"/>
	<path class="st16" d="M190.85,13.98l-0.94-0.78c-0.07-0.05-0.07-0.15-0.02-0.22l0,0c0.05-0.07,0.15-0.07,0.22-0.02l0.94,0.78
		c0.07,0.05,0.07,0.15,0.02,0.22l0,0C191.01,14.03,190.92,14.04,190.85,13.98z"/>
	<path class="st17" d="M191.06,18.96l-1.14,0.45c-0.08,0.03-0.17-0.01-0.2-0.09l0,0c-0.03-0.08,0.01-0.17,0.09-0.2l1.14-0.45
		c0.08-0.03,0.17,0.01,0.2,0.09l0,0C191.18,18.84,191.14,18.93,191.06,18.96z"/>
	<path class="st18" d="M191.77,21.28l-0.84-0.89c-0.06-0.06-0.06-0.16,0.01-0.22l0,0c0.06-0.06,0.16-0.06,0.22,0.01l0.84,0.89
		c0.06,0.06,0.06,0.16-0.01,0.22l0,0C191.92,21.34,191.82,21.34,191.77,21.28z"/>
	<path class="st16" d="M190.69,17.62l-1.11,0.52c-0.08,0.04-0.17,0-0.21-0.08l0,0c-0.04-0.08,0-0.17,0.08-0.21l1.11-0.52
		c0.08-0.04,0.17,0,0.21,0.08l0,0C190.8,17.49,190.77,17.58,190.69,17.62z"/>
	<path class="st17" d="M191.6,18.2l0.35-1.18c0.02-0.08,0.11-0.13,0.19-0.1l0,0c0.08,0.02,0.13,0.11,0.1,0.19l-0.35,1.18
		c-0.02,0.08-0.11,0.13-0.19,0.1l0,0C191.62,18.37,191.57,18.28,191.6,18.2z"/>
	<path class="st18" d="M191.52,24.06l-0.93-0.8c-0.06-0.06-0.07-0.15-0.02-0.22l0,0c0.06-0.06,0.15-0.07,0.22-0.02l0.93,0.8
		c0.06,0.06,0.07,0.15,0.02,0.22l0,0C191.69,24.11,191.59,24.12,191.52,24.06z"/>
	<path class="st16" d="M190.24,21.92l-0.58-1.08c-0.04-0.07-0.01-0.17,0.06-0.21l0,0c0.07-0.04,0.17-0.01,0.21,0.06l0.58,1.08
		c0.04,0.07,0.01,0.17-0.06,0.21l0,0C190.38,22.03,190.28,22,190.24,21.92z"/>
	<path class="st17" d="M189.89,22.48l-1.23-0.06c-0.08,0-0.15-0.08-0.15-0.16l0,0c0-0.08,0.08-0.15,0.16-0.15l1.23,0.06
		c0.08,0,0.15,0.08,0.15,0.16l0,0C190.05,22.41,189.97,22.48,189.89,22.48z"/>
	<path class="st18" d="M189.33,24.1l-0.99-0.72c-0.07-0.05-0.08-0.15-0.03-0.22v0c0.05-0.07,0.15-0.08,0.22-0.03l0.99,0.72
		c0.07,0.05,0.08,0.15,0.03,0.22l0,0C189.5,24.13,189.4,24.15,189.33,24.1z"/>
	<path class="st16" d="M192.8,14.76l-1.08,0.58c-0.07,0.04-0.17,0.01-0.21-0.06l0,0c-0.04-0.07-0.01-0.17,0.06-0.21l1.08-0.58
		c0.07-0.04,0.17-0.01,0.21,0.06v0C192.9,14.62,192.87,14.72,192.8,14.76z"/>
	<path class="st17" d="M191.09,16.77l-1.02-0.68c-0.07-0.05-0.09-0.14-0.04-0.21v0c0.05-0.07,0.14-0.09,0.21-0.04l1.02,0.68
		c0.07,0.05,0.09,0.14,0.04,0.21l0,0C191.26,16.8,191.16,16.82,191.09,16.77z"/>
	<path class="st18" d="M190.5,15.21l-1.07-0.59c-0.07-0.04-0.1-0.14-0.06-0.21v0c0.04-0.07,0.14-0.1,0.21-0.06l1.07,0.59
		c0.07,0.04,0.1,0.14,0.06,0.21l0,0C190.67,15.22,190.58,15.25,190.5,15.21z"/>
</g>
<g>
	<path class="st14" d="M278.33,32.47L278.33,32.47c-0.55-0.08-0.93-0.59-0.85-1.13l3.21-22.87c0.08-0.55,0.59-0.93,1.13-0.85v0
		c0.55,0.08,0.93,0.59,0.85,1.13l-3.21,22.87C279.39,32.17,278.88,32.55,278.33,32.47z"/>
	<path class="st15" d="M279.35,25.2L279.35,25.2c-0.68-0.1-1.16-0.73-1.07-1.42l2.4-17.05c0.1-0.68,0.73-1.16,1.42-1.07l0,0
		c0.68,0.1,1.16,0.73,1.07,1.42l-2.4,17.05C280.67,24.82,280.03,25.3,279.35,25.2z"/>
</g>
<g>
	<path class="st6" d="M14.33,75.74h-3.11v2.55c0.93-0.01,1.68-0.03,2.25-0.07s1.13-0.12,1.69-0.23l0.08,0.63
		c-0.58,0.12-1.16,0.2-1.75,0.23s-1.37,0.06-2.34,0.06h-0.67V75.1h3.86V75.74z M15.6,79.99c0.43,0.13,0.76,0.32,0.99,0.57
		s0.35,0.54,0.35,0.88c0,0.35-0.12,0.65-0.35,0.9s-0.56,0.44-0.99,0.57s-0.94,0.2-1.53,0.2c-0.59,0-1.1-0.06-1.54-0.2
		s-0.76-0.32-1-0.57s-0.35-0.55-0.35-0.9c0-0.34,0.12-0.64,0.35-0.88s0.57-0.44,1-0.57s0.94-0.2,1.53-0.2
		C14.66,79.79,15.17,79.86,15.6,79.99z M12.95,80.54c-0.32,0.08-0.57,0.2-0.74,0.35s-0.26,0.34-0.26,0.54c0,0.21,0.09,0.4,0.26,0.55
		s0.42,0.28,0.74,0.36s0.7,0.13,1.13,0.13c0.43,0,0.8-0.04,1.12-0.13s0.56-0.21,0.74-0.36s0.26-0.34,0.26-0.55
		c0-0.21-0.09-0.39-0.26-0.54s-0.42-0.27-0.74-0.35s-0.69-0.12-1.12-0.12C13.64,80.42,13.27,80.46,12.95,80.54z M16.87,76.7h1.3
		v0.64h-1.3v2.28H16.1v-5.19h0.77V76.7z"/>
	<path class="st6" d="M21.96,77.29c0.19,0.32,0.45,0.59,0.79,0.83s0.72,0.42,1.14,0.54l-0.35,0.61c-0.51-0.15-0.97-0.38-1.35-0.7
		s-0.68-0.68-0.88-1.1c-0.19,0.46-0.48,0.86-0.86,1.2s-0.83,0.59-1.35,0.76l-0.38-0.6c0.43-0.13,0.81-0.32,1.14-0.58
		s0.6-0.56,0.78-0.9s0.28-0.7,0.28-1.08v-0.2h-1.96v-0.62h1.96V74.4h0.77v1.07h1.94v0.62h-1.96v0.2
		C21.67,76.64,21.77,76.98,21.96,77.29z M25.91,83h-5.67v-2.97h5.67V83z M21,82.38h4.16v-1.72H21V82.38z M25.91,79.58h-0.77v-2.07
		h-1.76v-0.63h1.76v-2.44h0.77V79.58z"/>
</g>
<g>
	<path class="st19" d="M85.62,75.6h-3.58v0.93c0.83,0.04,1.47,0.18,1.93,0.45s0.69,0.62,0.69,1.08c0,0.32-0.12,0.59-0.36,0.82
		s-0.58,0.4-1.03,0.52s-0.98,0.18-1.6,0.18c-0.62,0-1.16-0.06-1.61-0.18s-0.79-0.29-1.03-0.52s-0.36-0.5-0.36-0.82
		c0-0.46,0.23-0.81,0.68-1.08s1.1-0.41,1.93-0.45V75.6h-3.57v-0.63h7.91V75.6z M84.91,71.94h-2.75c0.02,0.32,0.17,0.61,0.45,0.88
		s0.65,0.49,1.11,0.67s0.94,0.29,1.46,0.35l-0.28,0.61c-0.48-0.06-0.94-0.17-1.37-0.32s-0.81-0.36-1.14-0.61s-0.57-0.53-0.72-0.84
		c-0.15,0.31-0.39,0.59-0.72,0.84s-0.7,0.45-1.14,0.61s-0.89,0.27-1.38,0.32l-0.27-0.61c0.51-0.06,0.99-0.17,1.44-0.35
		s0.82-0.4,1.11-0.67s0.44-0.56,0.46-0.87h-2.73v-0.62h6.48V71.94z M80.46,77.23c-0.33,0.07-0.59,0.18-0.76,0.32
		s-0.26,0.31-0.26,0.5c0,0.19,0.08,0.36,0.26,0.49s0.43,0.24,0.76,0.31s0.73,0.11,1.19,0.11c0.46,0,0.85-0.04,1.18-0.11
		s0.59-0.18,0.77-0.31s0.27-0.3,0.27-0.49s-0.09-0.36-0.27-0.5s-0.43-0.25-0.76-0.32s-0.73-0.11-1.19-0.12
		C81.2,77.11,80.8,77.15,80.46,77.23z"/>
	<path class="st19" d="M94.26,76.03h-7.91v-0.63h3.57v-1.04H87.4v-3.24h0.76v1.01h4.3v-1.01h0.76v3.24h-2.54v1.04h3.57V76.03z
		 M93.28,79.58h-0.77V77.5h-5.28v-0.62h6.05V79.58z M92.46,73.73V72.7h-4.3v1.04H92.46z"/>
</g>
<g>
	<path class="st19" d="M271.75,83.44h-3.58v0.93c0.83,0.04,1.47,0.18,1.93,0.45c0.46,0.26,0.69,0.62,0.69,1.08
		c0,0.32-0.12,0.59-0.36,0.82c-0.24,0.23-0.58,0.4-1.03,0.52c-0.45,0.12-0.98,0.18-1.6,0.18c-0.62,0-1.16-0.06-1.61-0.18
		s-0.79-0.29-1.03-0.52c-0.24-0.23-0.36-0.5-0.36-0.82c0-0.46,0.23-0.81,0.68-1.08c0.46-0.26,1.1-0.41,1.93-0.45v-0.93h-3.57v-0.63
		h7.91V83.44z M271.05,79.78h-2.75c0.02,0.32,0.17,0.61,0.45,0.88s0.65,0.49,1.11,0.67c0.46,0.18,0.94,0.29,1.46,0.35l-0.28,0.61
		c-0.48-0.06-0.94-0.17-1.37-0.32c-0.43-0.16-0.81-0.36-1.14-0.61c-0.33-0.25-0.57-0.53-0.72-0.84c-0.15,0.31-0.39,0.59-0.72,0.84
		c-0.33,0.25-0.7,0.45-1.14,0.61c-0.43,0.16-0.89,0.27-1.38,0.32l-0.27-0.61c0.51-0.06,0.99-0.17,1.44-0.35s0.82-0.4,1.11-0.67
		c0.28-0.27,0.44-0.56,0.46-0.87h-2.73v-0.62h6.48V79.78z M266.6,85.07c-0.33,0.07-0.59,0.18-0.76,0.32s-0.26,0.31-0.26,0.5
		c0,0.19,0.08,0.36,0.26,0.49s0.43,0.24,0.76,0.31c0.33,0.07,0.73,0.11,1.19,0.11c0.46,0,0.85-0.04,1.18-0.11
		c0.33-0.07,0.59-0.18,0.77-0.31c0.18-0.14,0.27-0.3,0.27-0.49s-0.09-0.36-0.27-0.5c-0.18-0.14-0.43-0.25-0.76-0.32
		s-0.73-0.11-1.19-0.12C267.33,84.96,266.93,85,266.6,85.07z"/>
	<path class="st19" d="M280.39,83.87h-7.91v-0.63h3.57v-1.04h-2.52v-3.24h0.76v1.01h4.3v-1.01h0.76v3.24h-2.54v1.04h3.57V83.87z
		 M279.42,87.42h-0.77v-2.08h-5.28v-0.62h6.05V87.42z M278.6,81.58v-1.04h-4.3v1.04H278.6z"/>
</g>
<g>
	<path class="st6" d="M195.63,67h-3.11v2.55c0.93-0.01,1.68-0.03,2.25-0.07s1.13-0.12,1.69-0.23l0.08,0.63
		c-0.58,0.12-1.16,0.2-1.75,0.23s-1.37,0.06-2.34,0.06h-0.67v-3.81h3.86V67z M196.9,71.25c0.43,0.13,0.76,0.32,0.99,0.57
		s0.35,0.54,0.35,0.88c0,0.35-0.12,0.65-0.35,0.9s-0.56,0.44-0.99,0.57s-0.94,0.2-1.53,0.2c-0.59,0-1.1-0.06-1.54-0.2
		s-0.76-0.32-1-0.57s-0.35-0.55-0.35-0.9c0-0.34,0.12-0.64,0.35-0.88s0.57-0.44,1-0.57s0.94-0.2,1.53-0.2
		C195.96,71.06,196.47,71.12,196.9,71.25z M194.24,71.81c-0.32,0.08-0.57,0.2-0.74,0.35s-0.26,0.34-0.26,0.54
		c0,0.21,0.09,0.4,0.26,0.55s0.42,0.28,0.74,0.36s0.7,0.13,1.13,0.13c0.43,0,0.8-0.04,1.12-0.13s0.56-0.21,0.74-0.36
		s0.26-0.34,0.26-0.55c0-0.21-0.09-0.39-0.26-0.54s-0.42-0.27-0.74-0.35s-0.69-0.12-1.12-0.12
		C194.94,71.69,194.56,71.73,194.24,71.81z M198.17,67.97h1.3v0.64h-1.3v2.28h-0.77V65.7h0.77V67.97z"/>
	<path class="st6" d="M203.26,68.56c0.19,0.32,0.45,0.59,0.79,0.83s0.72,0.42,1.14,0.54l-0.35,0.61c-0.51-0.15-0.97-0.38-1.35-0.7
		s-0.68-0.68-0.88-1.1c-0.19,0.46-0.48,0.86-0.86,1.2s-0.83,0.59-1.35,0.76l-0.38-0.6c0.43-0.13,0.81-0.32,1.14-0.58
		s0.6-0.56,0.78-0.9s0.28-0.7,0.28-1.08v-0.2h-1.96v-0.62h1.96v-1.07h0.77v1.07h1.94v0.62h-1.96v0.2
		C202.97,67.91,203.07,68.24,203.26,68.56z M207.21,74.27h-5.67V71.3h5.67V74.27z M202.3,73.64h4.16v-1.72h-4.16V73.64z
		 M207.21,70.85h-0.77v-2.07h-1.76v-0.63h1.76V65.7h0.77V70.85z"/>
</g>
<g>
	<path class="st6" d="M304.63,67h-3.11v2.55c0.93-0.01,1.68-0.03,2.25-0.07c0.57-0.04,1.13-0.12,1.69-0.23l0.08,0.63
		c-0.58,0.12-1.16,0.2-1.75,0.23c-0.59,0.04-1.37,0.06-2.34,0.06h-0.67v-3.81h3.86V67z M305.9,71.25c0.43,0.13,0.76,0.32,0.99,0.57
		c0.23,0.25,0.35,0.54,0.35,0.88c0,0.35-0.12,0.65-0.35,0.9c-0.23,0.25-0.56,0.44-0.99,0.57c-0.43,0.13-0.94,0.2-1.53,0.2
		c-0.59,0-1.1-0.06-1.54-0.2c-0.43-0.13-0.76-0.32-1-0.57c-0.23-0.25-0.35-0.55-0.35-0.9c0-0.34,0.12-0.64,0.35-0.88
		c0.23-0.25,0.57-0.44,1-0.57c0.43-0.13,0.94-0.2,1.53-0.2C304.96,71.06,305.47,71.12,305.9,71.25z M303.25,71.81
		c-0.32,0.08-0.57,0.2-0.74,0.35c-0.17,0.15-0.26,0.34-0.26,0.54c0,0.21,0.09,0.4,0.26,0.55c0.17,0.16,0.42,0.28,0.74,0.36
		c0.32,0.08,0.7,0.13,1.13,0.13c0.43,0,0.8-0.04,1.12-0.13c0.32-0.08,0.57-0.21,0.74-0.36c0.17-0.16,0.26-0.34,0.26-0.55
		c0-0.21-0.09-0.39-0.26-0.54c-0.17-0.15-0.42-0.27-0.74-0.35c-0.32-0.08-0.69-0.12-1.12-0.12
		C303.95,71.69,303.57,71.73,303.25,71.81z M307.17,67.97h1.3v0.64h-1.3v2.28h-0.77v-5.19h0.77V67.97z"/>
	<path class="st6" d="M312.26,68.56c0.19,0.32,0.45,0.59,0.79,0.83c0.34,0.24,0.72,0.42,1.14,0.54l-0.35,0.61
		c-0.51-0.15-0.96-0.38-1.35-0.7c-0.39-0.31-0.68-0.68-0.88-1.1c-0.19,0.46-0.47,0.86-0.86,1.2c-0.38,0.34-0.83,0.59-1.35,0.76
		l-0.38-0.6c0.43-0.13,0.81-0.32,1.14-0.58c0.34-0.26,0.6-0.56,0.78-0.9c0.19-0.34,0.28-0.7,0.28-1.08v-0.2h-1.96v-0.62h1.96v-1.07
		H312v1.07h1.94v0.62h-1.96v0.2C311.98,67.91,312.07,68.24,312.26,68.56z M316.21,74.27h-5.67V71.3h5.67V74.27z M311.3,73.64h4.16
		v-1.72h-4.16V73.64z M316.21,70.85h-0.77v-2.07h-1.76v-0.63h1.76v-2.44h0.77V70.85z"/>
</g>
<g>
	<path class="st20" d="M78.73,68.08h-36.3c-3.32,0-6.04-2.72-6.04-6.04c0-3.32,2.72-6.04,6.04-6.04h36.3c3.32,0,6.04,2.72,6.04,6.04
		C84.77,65.36,82.05,68.08,78.73,68.08z"/>
</g>
<g>
	<path class="st21" d="M279.66,76.51L279.66,76.51c-3.32,0-6.04-2.72-6.04-6.04V61.6c0-3.32,2.72-6.04,6.04-6.04h0
		c3.32,0,6.04,2.72,6.04,6.04v8.87C285.69,73.8,282.98,76.51,279.66,76.51z"/>
</g>
<g>
</g>
<g>
</g>
<g>
</g>
<g>
</g>
<g>
</g>
<g>
</g>
<g>
</g>
</svg>
