<?xml version="1.0" encoding="utf-8" standalone="no"?>
<!DOCTYPE svg PUBLIC "-//W3C//DTD SVG 1.1//EN"
  "http://www.w3.org/Graphics/SVG/1.1/DTD/svg11.dtd">
<svg xmlns:xlink="http://www.w3.org/1999/xlink" width="378.04993pt" height="206.013261pt" viewBox="0 0 378.04993 206.013261" xmlns="http://www.w3.org/2000/svg" version="1.1">
 <metadata>
  <rdf:RDF xmlns:dc="http://purl.org/dc/elements/1.1/" xmlns:cc="http://creativecommons.org/ns#" xmlns:rdf="http://www.w3.org/1999/02/22-rdf-syntax-ns#">
   <cc:Work>
    <dc:type rdf:resource="http://purl.org/dc/dcmitype/StillImage"/>
    <dc:date>2023-11-11T00:32:50.912792</dc:date>
    <dc:format>image/svg+xml</dc:format>
    <dc:creator>
     <cc:Agent>
      <dc:title>Matplotlib v3.7.2, https://matplotlib.org/</dc:title>
     </cc:Agent>
    </dc:creator>
   </cc:Work>
  </rdf:RDF>
 </metadata>
 <defs>
  <style type="text/css">*{stroke-linejoin: round; stroke-linecap: butt}</style>
 </defs>
 <g id="figure_1">
  <g id="patch_1">
   <path d="M 0 206.013261 
L 378.04993 206.013261 
L 378.04993 0 
L 0 0 
z
" style="fill: #ffffff"/>
  </g>
  <g id="axes_1">
   <g id="patch_2">
    <path d="M 28.57795 173.52 
L 363.37795 173.52 
L 363.37795 7.2 
L 28.57795 7.2 
z
" style="fill: #ffffff"/>
   </g>
   <g id="patch_3">
    <path d="M 78.79795 173.52 
L 80.21248 173.52 
L 80.21248 105.634286 
L 78.79795 105.634286 
z
" clip-path="url(#p83820537e7)" style="fill: #ff4500"/>
   </g>
   <g id="patch_4">
    <path d="M 80.21248 173.52 
L 81.62701 173.52 
L 81.62701 173.52 
L 80.21248 173.52 
z
" clip-path="url(#p83820537e7)" style="fill: #ff4500"/>
   </g>
   <g id="patch_5">
    <path d="M 81.62701 173.52 
L 83.04154 173.52 
L 83.04154 173.52 
L 81.62701 173.52 
z
" clip-path="url(#p83820537e7)" style="fill: #ff4500"/>
   </g>
   <g id="patch_6">
    <path d="M 83.04154 173.52 
L 84.45607 173.52 
L 84.45607 173.52 
L 83.04154 173.52 
z
" clip-path="url(#p83820537e7)" style="fill: #ff4500"/>
   </g>
   <g id="patch_7">
    <path d="M 84.45607 173.52 
L 85.8706 173.52 
L 85.8706 173.52 
L 84.45607 173.52 
z
" clip-path="url(#p83820537e7)" style="fill: #ff4500"/>
   </g>
   <g id="patch_8">
    <path d="M 85.8706 173.52 
L 87.28513 173.52 
L 87.28513 173.52 
L 85.8706 173.52 
z
" clip-path="url(#p83820537e7)" style="fill: #ff4500"/>
   </g>
   <g id="patch_9">
    <path d="M 87.28513 173.52 
L 88.69966 173.52 
L 88.69966 173.52 
L 87.28513 173.52 
z
" clip-path="url(#p83820537e7)" style="fill: #ff4500"/>
   </g>
   <g id="patch_10">
    <path d="M 88.69966 173.52 
L 90.11419 173.52 
L 90.11419 150.891429 
L 88.69966 150.891429 
z
" clip-path="url(#p83820537e7)" style="fill: #ff4500"/>
   </g>
   <g id="patch_11">
    <path d="M 90.11419 173.52 
L 91.52872 173.52 
L 91.52872 173.52 
L 90.11419 173.52 
z
" clip-path="url(#p83820537e7)" style="fill: #ff4500"/>
   </g>
   <g id="patch_12">
    <path d="M 91.52872 173.52 
L 92.94325 173.52 
L 92.94325 173.52 
L 91.52872 173.52 
z
" clip-path="url(#p83820537e7)" style="fill: #ff4500"/>
   </g>
   <g id="patch_13">
    <path d="M 92.94325 173.52 
L 94.35778 173.52 
L 94.35778 173.52 
L 92.94325 173.52 
z
" clip-path="url(#p83820537e7)" style="fill: #ff4500"/>
   </g>
   <g id="patch_14">
    <path d="M 94.35778 173.52 
L 95.77231 173.52 
L 95.77231 173.52 
L 94.35778 173.52 
z
" clip-path="url(#p83820537e7)" style="fill: #ff4500"/>
   </g>
   <g id="patch_15">
    <path d="M 95.77231 173.52 
L 97.18684 173.52 
L 97.18684 173.52 
L 95.77231 173.52 
z
" clip-path="url(#p83820537e7)" style="fill: #ff4500"/>
   </g>
   <g id="patch_16">
    <path d="M 97.18684 173.52 
L 98.60137 173.52 
L 98.60137 173.52 
L 97.18684 173.52 
z
" clip-path="url(#p83820537e7)" style="fill: #ff4500"/>
   </g>
   <g id="patch_17">
    <path d="M 98.60137 173.52 
L 100.0159 173.52 
L 100.0159 173.52 
L 98.60137 173.52 
z
" clip-path="url(#p83820537e7)" style="fill: #ff4500"/>
   </g>
   <g id="patch_18">
    <path d="M 100.0159 173.52 
L 101.43043 173.52 
L 101.43043 173.52 
L 100.0159 173.52 
z
" clip-path="url(#p83820537e7)" style="fill: #ff4500"/>
   </g>
   <g id="patch_19">
    <path d="M 101.43043 173.52 
L 102.84496 173.52 
L 102.84496 173.52 
L 101.43043 173.52 
z
" clip-path="url(#p83820537e7)" style="fill: #ff4500"/>
   </g>
   <g id="patch_20">
    <path d="M 102.84496 173.52 
L 104.25949 173.52 
L 104.25949 173.52 
L 102.84496 173.52 
z
" clip-path="url(#p83820537e7)" style="fill: #ff4500"/>
   </g>
   <g id="patch_21">
    <path d="M 104.25949 173.52 
L 105.67402 173.52 
L 105.67402 173.52 
L 104.25949 173.52 
z
" clip-path="url(#p83820537e7)" style="fill: #ff4500"/>
   </g>
   <g id="patch_22">
    <path d="M 105.67402 173.52 
L 107.08855 173.52 
L 107.08855 173.52 
L 105.67402 173.52 
z
" clip-path="url(#p83820537e7)" style="fill: #ff4500"/>
   </g>
   <g id="patch_23">
    <path d="M 107.08855 173.52 
L 108.50308 173.52 
L 108.50308 173.52 
L 107.08855 173.52 
z
" clip-path="url(#p83820537e7)" style="fill: #ff4500"/>
   </g>
   <g id="patch_24">
    <path d="M 108.50308 173.52 
L 109.91761 173.52 
L 109.91761 173.52 
L 108.50308 173.52 
z
" clip-path="url(#p83820537e7)" style="fill: #ff4500"/>
   </g>
   <g id="patch_25">
    <path d="M 109.91761 173.52 
L 111.33214 173.52 
L 111.33214 173.52 
L 109.91761 173.52 
z
" clip-path="url(#p83820537e7)" style="fill: #ff4500"/>
   </g>
   <g id="patch_26">
    <path d="M 111.33214 173.52 
L 112.74667 173.52 
L 112.74667 173.52 
L 111.33214 173.52 
z
" clip-path="url(#p83820537e7)" style="fill: #ff4500"/>
   </g>
   <g id="patch_27">
    <path d="M 112.74667 173.52 
L 114.1612 173.52 
L 114.1612 173.52 
L 112.74667 173.52 
z
" clip-path="url(#p83820537e7)" style="fill: #ff4500"/>
   </g>
   <g id="patch_28">
    <path d="M 114.1612 173.52 
L 115.57573 173.52 
L 115.57573 173.52 
L 114.1612 173.52 
z
" clip-path="url(#p83820537e7)" style="fill: #ff4500"/>
   </g>
   <g id="patch_29">
    <path d="M 115.57573 173.52 
L 116.99026 173.52 
L 116.99026 173.52 
L 115.57573 173.52 
z
" clip-path="url(#p83820537e7)" style="fill: #ff4500"/>
   </g>
   <g id="patch_30">
    <path d="M 116.99026 173.52 
L 118.40479 173.52 
L 118.40479 173.52 
L 116.99026 173.52 
z
" clip-path="url(#p83820537e7)" style="fill: #ff4500"/>
   </g>
   <g id="patch_31">
    <path d="M 118.40479 173.52 
L 119.81932 173.52 
L 119.81932 173.52 
L 118.40479 173.52 
z
" clip-path="url(#p83820537e7)" style="fill: #ff4500"/>
   </g>
   <g id="patch_32">
    <path d="M 119.81932 173.52 
L 121.23385 173.52 
L 121.23385 173.52 
L 119.81932 173.52 
z
" clip-path="url(#p83820537e7)" style="fill: #ff4500"/>
   </g>
   <g id="patch_33">
    <path d="M 121.23385 173.52 
L 122.64838 173.52 
L 122.64838 173.52 
L 121.23385 173.52 
z
" clip-path="url(#p83820537e7)" style="fill: #ff4500"/>
   </g>
   <g id="patch_34">
    <path d="M 122.64838 173.52 
L 124.06291 173.52 
L 124.06291 173.52 
L 122.64838 173.52 
z
" clip-path="url(#p83820537e7)" style="fill: #ff4500"/>
   </g>
   <g id="patch_35">
    <path d="M 124.06291 173.52 
L 125.47744 173.52 
L 125.47744 173.52 
L 124.06291 173.52 
z
" clip-path="url(#p83820537e7)" style="fill: #ff4500"/>
   </g>
   <g id="patch_36">
    <path d="M 125.47744 173.52 
L 126.89197 173.52 
L 126.89197 173.52 
L 125.47744 173.52 
z
" clip-path="url(#p83820537e7)" style="fill: #ff4500"/>
   </g>
   <g id="patch_37">
    <path d="M 126.89197 173.52 
L 128.3065 173.52 
L 128.3065 173.52 
L 126.89197 173.52 
z
" clip-path="url(#p83820537e7)" style="fill: #ff4500"/>
   </g>
   <g id="patch_38">
    <path d="M 128.3065 173.52 
L 129.72103 173.52 
L 129.72103 173.52 
L 128.3065 173.52 
z
" clip-path="url(#p83820537e7)" style="fill: #ff4500"/>
   </g>
   <g id="patch_39">
    <path d="M 129.72103 173.52 
L 131.13556 173.52 
L 131.13556 173.52 
L 129.72103 173.52 
z
" clip-path="url(#p83820537e7)" style="fill: #ff4500"/>
   </g>
   <g id="patch_40">
    <path d="M 131.13556 173.52 
L 132.55009 173.52 
L 132.55009 173.52 
L 131.13556 173.52 
z
" clip-path="url(#p83820537e7)" style="fill: #ff4500"/>
   </g>
   <g id="patch_41">
    <path d="M 132.55009 173.52 
L 133.96462 173.52 
L 133.96462 173.52 
L 132.55009 173.52 
z
" clip-path="url(#p83820537e7)" style="fill: #ff4500"/>
   </g>
   <g id="patch_42">
    <path d="M 133.96462 173.52 
L 135.37915 173.52 
L 135.37915 173.52 
L 133.96462 173.52 
z
" clip-path="url(#p83820537e7)" style="fill: #ff4500"/>
   </g>
   <g id="patch_43">
    <path d="M 135.37915 173.52 
L 136.79368 173.52 
L 136.79368 150.891429 
L 135.37915 150.891429 
z
" clip-path="url(#p83820537e7)" style="fill: #ff4500"/>
   </g>
   <g id="patch_44">
    <path d="M 136.79368 173.52 
L 138.20821 173.52 
L 138.20821 173.52 
L 136.79368 173.52 
z
" clip-path="url(#p83820537e7)" style="fill: #ff4500"/>
   </g>
   <g id="patch_45">
    <path d="M 138.20821 173.52 
L 139.62274 173.52 
L 139.62274 173.52 
L 138.20821 173.52 
z
" clip-path="url(#p83820537e7)" style="fill: #ff4500"/>
   </g>
   <g id="patch_46">
    <path d="M 139.62274 173.52 
L 141.03727 173.52 
L 141.03727 173.52 
L 139.62274 173.52 
z
" clip-path="url(#p83820537e7)" style="fill: #ff4500"/>
   </g>
   <g id="patch_47">
    <path d="M 141.03727 173.52 
L 142.4518 173.52 
L 142.4518 173.52 
L 141.03727 173.52 
z
" clip-path="url(#p83820537e7)" style="fill: #ff4500"/>
   </g>
   <g id="patch_48">
    <path d="M 142.4518 173.52 
L 143.86633 173.52 
L 143.86633 173.52 
L 142.4518 173.52 
z
" clip-path="url(#p83820537e7)" style="fill: #ff4500"/>
   </g>
   <g id="patch_49">
    <path d="M 143.86633 173.52 
L 145.28086 173.52 
L 145.28086 173.52 
L 143.86633 173.52 
z
" clip-path="url(#p83820537e7)" style="fill: #ff4500"/>
   </g>
   <g id="patch_50">
    <path d="M 145.28086 173.52 
L 146.69539 173.52 
L 146.69539 173.52 
L 145.28086 173.52 
z
" clip-path="url(#p83820537e7)" style="fill: #ff4500"/>
   </g>
   <g id="patch_51">
    <path d="M 146.69539 173.52 
L 148.10992 173.52 
L 148.10992 173.52 
L 146.69539 173.52 
z
" clip-path="url(#p83820537e7)" style="fill: #ff4500"/>
   </g>
   <g id="patch_52">
    <path d="M 148.10992 173.52 
L 149.52445 173.52 
L 149.52445 173.52 
L 148.10992 173.52 
z
" clip-path="url(#p83820537e7)" style="fill: #ff4500"/>
   </g>
   <g id="patch_53">
    <path d="M 149.52445 173.52 
L 150.93898 173.52 
L 150.93898 173.52 
L 149.52445 173.52 
z
" clip-path="url(#p83820537e7)" style="fill: #ff4500"/>
   </g>
   <g id="patch_54">
    <path d="M 150.93898 173.52 
L 152.35351 173.52 
L 152.35351 173.52 
L 150.93898 173.52 
z
" clip-path="url(#p83820537e7)" style="fill: #ff4500"/>
   </g>
   <g id="patch_55">
    <path d="M 152.35351 173.52 
L 153.76804 173.52 
L 153.76804 173.52 
L 152.35351 173.52 
z
" clip-path="url(#p83820537e7)" style="fill: #ff4500"/>
   </g>
   <g id="patch_56">
    <path d="M 153.76804 173.52 
L 155.18257 173.52 
L 155.18257 173.52 
L 153.76804 173.52 
z
" clip-path="url(#p83820537e7)" style="fill: #ff4500"/>
   </g>
   <g id="patch_57">
    <path d="M 155.18257 173.52 
L 156.5971 173.52 
L 156.5971 150.891429 
L 155.18257 150.891429 
z
" clip-path="url(#p83820537e7)" style="fill: #ff4500"/>
   </g>
   <g id="patch_58">
    <path d="M 156.5971 173.52 
L 158.01163 173.52 
L 158.01163 173.52 
L 156.5971 173.52 
z
" clip-path="url(#p83820537e7)" style="fill: #ff4500"/>
   </g>
   <g id="patch_59">
    <path d="M 158.01163 173.52 
L 159.42616 173.52 
L 159.42616 173.52 
L 158.01163 173.52 
z
" clip-path="url(#p83820537e7)" style="fill: #ff4500"/>
   </g>
   <g id="patch_60">
    <path d="M 159.42616 173.52 
L 160.84069 173.52 
L 160.84069 173.52 
L 159.42616 173.52 
z
" clip-path="url(#p83820537e7)" style="fill: #ff4500"/>
   </g>
   <g id="patch_61">
    <path d="M 160.84069 173.52 
L 162.25522 173.52 
L 162.25522 173.52 
L 160.84069 173.52 
z
" clip-path="url(#p83820537e7)" style="fill: #ff4500"/>
   </g>
   <g id="patch_62">
    <path d="M 162.25522 173.52 
L 163.66975 173.52 
L 163.66975 173.52 
L 162.25522 173.52 
z
" clip-path="url(#p83820537e7)" style="fill: #ff4500"/>
   </g>
   <g id="patch_63">
    <path d="M 163.66975 173.52 
L 165.08428 173.52 
L 165.08428 173.52 
L 163.66975 173.52 
z
" clip-path="url(#p83820537e7)" style="fill: #ff4500"/>
   </g>
   <g id="patch_64">
    <path d="M 165.08428 173.52 
L 166.49881 173.52 
L 166.49881 173.52 
L 165.08428 173.52 
z
" clip-path="url(#p83820537e7)" style="fill: #ff4500"/>
   </g>
   <g id="patch_65">
    <path d="M 166.49881 173.52 
L 167.91334 173.52 
L 167.91334 173.52 
L 166.49881 173.52 
z
" clip-path="url(#p83820537e7)" style="fill: #ff4500"/>
   </g>
   <g id="patch_66">
    <path d="M 167.91334 173.52 
L 169.32787 173.52 
L 169.32787 150.891429 
L 167.91334 150.891429 
z
" clip-path="url(#p83820537e7)" style="fill: #ff4500"/>
   </g>
   <g id="patch_67">
    <path d="M 169.32787 173.52 
L 170.7424 173.52 
L 170.7424 173.52 
L 169.32787 173.52 
z
" clip-path="url(#p83820537e7)" style="fill: #ff4500"/>
   </g>
   <g id="patch_68">
    <path d="M 170.7424 173.52 
L 172.15693 173.52 
L 172.15693 173.52 
L 170.7424 173.52 
z
" clip-path="url(#p83820537e7)" style="fill: #ff4500"/>
   </g>
   <g id="patch_69">
    <path d="M 172.15693 173.52 
L 173.57146 173.52 
L 173.57146 173.52 
L 172.15693 173.52 
z
" clip-path="url(#p83820537e7)" style="fill: #ff4500"/>
   </g>
   <g id="patch_70">
    <path d="M 173.57146 173.52 
L 174.98599 173.52 
L 174.98599 173.52 
L 173.57146 173.52 
z
" clip-path="url(#p83820537e7)" style="fill: #ff4500"/>
   </g>
   <g id="patch_71">
    <path d="M 174.98599 173.52 
L 176.40052 173.52 
L 176.40052 173.52 
L 174.98599 173.52 
z
" clip-path="url(#p83820537e7)" style="fill: #ff4500"/>
   </g>
   <g id="patch_72">
    <path d="M 176.40052 173.52 
L 177.81505 173.52 
L 177.81505 173.52 
L 176.40052 173.52 
z
" clip-path="url(#p83820537e7)" style="fill: #ff4500"/>
   </g>
   <g id="patch_73">
    <path d="M 177.81505 173.52 
L 179.22958 173.52 
L 179.22958 173.52 
L 177.81505 173.52 
z
" clip-path="url(#p83820537e7)" style="fill: #ff4500"/>
   </g>
   <g id="patch_74">
    <path d="M 179.22958 173.52 
L 180.64411 173.52 
L 180.64411 173.52 
L 179.22958 173.52 
z
" clip-path="url(#p83820537e7)" style="fill: #ff4500"/>
   </g>
   <g id="patch_75">
    <path d="M 180.64411 173.52 
L 182.05864 173.52 
L 182.05864 173.52 
L 180.64411 173.52 
z
" clip-path="url(#p83820537e7)" style="fill: #ff4500"/>
   </g>
   <g id="patch_76">
    <path d="M 182.05864 173.52 
L 183.47317 173.52 
L 183.47317 173.52 
L 182.05864 173.52 
z
" clip-path="url(#p83820537e7)" style="fill: #ff4500"/>
   </g>
   <g id="patch_77">
    <path d="M 183.47317 173.52 
L 184.8877 173.52 
L 184.8877 150.891429 
L 183.47317 150.891429 
z
" clip-path="url(#p83820537e7)" style="fill: #ff4500"/>
   </g>
   <g id="patch_78">
    <path d="M 184.8877 173.52 
L 186.30223 173.52 
L 186.30223 150.891429 
L 184.8877 150.891429 
z
" clip-path="url(#p83820537e7)" style="fill: #ff4500"/>
   </g>
   <g id="patch_79">
    <path d="M 186.30223 173.52 
L 187.71676 173.52 
L 187.71676 173.52 
L 186.30223 173.52 
z
" clip-path="url(#p83820537e7)" style="fill: #ff4500"/>
   </g>
   <g id="patch_80">
    <path d="M 187.71676 173.52 
L 189.13129 173.52 
L 189.13129 173.52 
L 187.71676 173.52 
z
" clip-path="url(#p83820537e7)" style="fill: #ff4500"/>
   </g>
   <g id="patch_81">
    <path d="M 189.13129 173.52 
L 190.54582 173.52 
L 190.54582 173.52 
L 189.13129 173.52 
z
" clip-path="url(#p83820537e7)" style="fill: #ff4500"/>
   </g>
   <g id="patch_82">
    <path d="M 190.54582 173.52 
L 191.96035 173.52 
L 191.96035 173.52 
L 190.54582 173.52 
z
" clip-path="url(#p83820537e7)" style="fill: #ff4500"/>
   </g>
   <g id="patch_83">
    <path d="M 191.96035 173.52 
L 193.37488 173.52 
L 193.37488 173.52 
L 191.96035 173.52 
z
" clip-path="url(#p83820537e7)" style="fill: #ff4500"/>
   </g>
   <g id="patch_84">
    <path d="M 193.37488 173.52 
L 194.78941 173.52 
L 194.78941 173.52 
L 193.37488 173.52 
z
" clip-path="url(#p83820537e7)" style="fill: #ff4500"/>
   </g>
   <g id="patch_85">
    <path d="M 194.78941 173.52 
L 196.20394 173.52 
L 196.20394 15.12 
L 194.78941 15.12 
z
" clip-path="url(#p83820537e7)" style="fill: #ff4500"/>
   </g>
   <g id="patch_86">
    <path d="M 196.20394 173.52 
L 197.61847 173.52 
L 197.61847 173.52 
L 196.20394 173.52 
z
" clip-path="url(#p83820537e7)" style="fill: #ff4500"/>
   </g>
   <g id="patch_87">
    <path d="M 197.61847 173.52 
L 199.033 173.52 
L 199.033 128.262857 
L 197.61847 128.262857 
z
" clip-path="url(#p83820537e7)" style="fill: #ff4500"/>
   </g>
   <g id="patch_88">
    <path d="M 199.033 173.52 
L 200.44753 173.52 
L 200.44753 173.52 
L 199.033 173.52 
z
" clip-path="url(#p83820537e7)" style="fill: #ff4500"/>
   </g>
   <g id="patch_89">
    <path d="M 200.44753 173.52 
L 201.86206 173.52 
L 201.86206 150.891429 
L 200.44753 150.891429 
z
" clip-path="url(#p83820537e7)" style="fill: #ff4500"/>
   </g>
   <g id="patch_90">
    <path d="M 201.86206 173.52 
L 203.27659 173.52 
L 203.27659 150.891429 
L 201.86206 150.891429 
z
" clip-path="url(#p83820537e7)" style="fill: #ff4500"/>
   </g>
   <g id="patch_91">
    <path d="M 203.27659 173.52 
L 204.69112 173.52 
L 204.69112 173.52 
L 203.27659 173.52 
z
" clip-path="url(#p83820537e7)" style="fill: #ff4500"/>
   </g>
   <g id="patch_92">
    <path d="M 204.69112 173.52 
L 206.10565 173.52 
L 206.10565 150.891429 
L 204.69112 150.891429 
z
" clip-path="url(#p83820537e7)" style="fill: #ff4500"/>
   </g>
   <g id="patch_93">
    <path d="M 206.10565 173.52 
L 207.52018 173.52 
L 207.52018 173.52 
L 206.10565 173.52 
z
" clip-path="url(#p83820537e7)" style="fill: #ff4500"/>
   </g>
   <g id="patch_94">
    <path d="M 207.52018 173.52 
L 208.93471 173.52 
L 208.93471 128.262857 
L 207.52018 128.262857 
z
" clip-path="url(#p83820537e7)" style="fill: #ff4500"/>
   </g>
   <g id="patch_95">
    <path d="M 208.93471 173.52 
L 210.34924 173.52 
L 210.34924 173.52 
L 208.93471 173.52 
z
" clip-path="url(#p83820537e7)" style="fill: #ff4500"/>
   </g>
   <g id="patch_96">
    <path d="M 210.34924 173.52 
L 211.76377 173.52 
L 211.76377 150.891429 
L 210.34924 150.891429 
z
" clip-path="url(#p83820537e7)" style="fill: #ff4500"/>
   </g>
   <g id="patch_97">
    <path d="M 211.76377 173.52 
L 213.1783 173.52 
L 213.1783 150.891429 
L 211.76377 150.891429 
z
" clip-path="url(#p83820537e7)" style="fill: #ff4500"/>
   </g>
   <g id="patch_98">
    <path d="M 213.1783 173.52 
L 214.59283 173.52 
L 214.59283 173.52 
L 213.1783 173.52 
z
" clip-path="url(#p83820537e7)" style="fill: #ff4500"/>
   </g>
   <g id="patch_99">
    <path d="M 214.59283 173.52 
L 216.00736 173.52 
L 216.00736 173.52 
L 214.59283 173.52 
z
" clip-path="url(#p83820537e7)" style="fill: #ff4500"/>
   </g>
   <g id="patch_100">
    <path d="M 216.00736 173.52 
L 217.42189 173.52 
L 217.42189 173.52 
L 216.00736 173.52 
z
" clip-path="url(#p83820537e7)" style="fill: #ff4500"/>
   </g>
   <g id="patch_101">
    <path d="M 217.42189 173.52 
L 218.83642 173.52 
L 218.83642 173.52 
L 217.42189 173.52 
z
" clip-path="url(#p83820537e7)" style="fill: #ff4500"/>
   </g>
   <g id="patch_102">
    <path d="M 218.83642 173.52 
L 220.25095 173.52 
L 220.25095 173.52 
L 218.83642 173.52 
z
" clip-path="url(#p83820537e7)" style="fill: #ff4500"/>
   </g>
   <g id="patch_103">
    <path d="M 220.25095 173.52 
L 221.66548 173.52 
L 221.66548 173.52 
L 220.25095 173.52 
z
" clip-path="url(#p83820537e7)" style="fill: #ff4500"/>
   </g>
   <g id="patch_104">
    <path d="M 221.66548 173.52 
L 223.08001 173.52 
L 223.08001 173.52 
L 221.66548 173.52 
z
" clip-path="url(#p83820537e7)" style="fill: #ff4500"/>
   </g>
   <g id="patch_105">
    <path d="M 223.08001 173.52 
L 224.49454 173.52 
L 224.49454 173.52 
L 223.08001 173.52 
z
" clip-path="url(#p83820537e7)" style="fill: #ff4500"/>
   </g>
   <g id="patch_106">
    <path d="M 224.49454 173.52 
L 225.90907 173.52 
L 225.90907 173.52 
L 224.49454 173.52 
z
" clip-path="url(#p83820537e7)" style="fill: #ff4500"/>
   </g>
   <g id="patch_107">
    <path d="M 225.90907 173.52 
L 227.3236 173.52 
L 227.3236 173.52 
L 225.90907 173.52 
z
" clip-path="url(#p83820537e7)" style="fill: #ff4500"/>
   </g>
   <g id="patch_108">
    <path d="M 227.3236 173.52 
L 228.73813 173.52 
L 228.73813 173.52 
L 227.3236 173.52 
z
" clip-path="url(#p83820537e7)" style="fill: #ff4500"/>
   </g>
   <g id="patch_109">
    <path d="M 228.73813 173.52 
L 230.15266 173.52 
L 230.15266 173.52 
L 228.73813 173.52 
z
" clip-path="url(#p83820537e7)" style="fill: #ff4500"/>
   </g>
   <g id="patch_110">
    <path d="M 230.15266 173.52 
L 231.56719 173.52 
L 231.56719 173.52 
L 230.15266 173.52 
z
" clip-path="url(#p83820537e7)" style="fill: #ff4500"/>
   </g>
   <g id="patch_111">
    <path d="M 231.56719 173.52 
L 232.98172 173.52 
L 232.98172 173.52 
L 231.56719 173.52 
z
" clip-path="url(#p83820537e7)" style="fill: #ff4500"/>
   </g>
   <g id="patch_112">
    <path d="M 232.98172 173.52 
L 234.39625 173.52 
L 234.39625 173.52 
L 232.98172 173.52 
z
" clip-path="url(#p83820537e7)" style="fill: #ff4500"/>
   </g>
   <g id="patch_113">
    <path d="M 234.39625 173.52 
L 235.81078 173.52 
L 235.81078 150.891429 
L 234.39625 150.891429 
z
" clip-path="url(#p83820537e7)" style="fill: #ff4500"/>
   </g>
   <g id="patch_114">
    <path d="M 235.81078 173.52 
L 237.22531 173.52 
L 237.22531 173.52 
L 235.81078 173.52 
z
" clip-path="url(#p83820537e7)" style="fill: #ff4500"/>
   </g>
   <g id="patch_115">
    <path d="M 237.22531 173.52 
L 238.63984 173.52 
L 238.63984 173.52 
L 237.22531 173.52 
z
" clip-path="url(#p83820537e7)" style="fill: #ff4500"/>
   </g>
   <g id="patch_116">
    <path d="M 238.63984 173.52 
L 240.05437 173.52 
L 240.05437 173.52 
L 238.63984 173.52 
z
" clip-path="url(#p83820537e7)" style="fill: #ff4500"/>
   </g>
   <g id="patch_117">
    <path d="M 240.05437 173.52 
L 241.4689 173.52 
L 241.4689 173.52 
L 240.05437 173.52 
z
" clip-path="url(#p83820537e7)" style="fill: #ff4500"/>
   </g>
   <g id="patch_118">
    <path d="M 241.4689 173.52 
L 242.88343 173.52 
L 242.88343 128.262857 
L 241.4689 128.262857 
z
" clip-path="url(#p83820537e7)" style="fill: #ff4500"/>
   </g>
   <g id="patch_119">
    <path d="M 242.88343 173.52 
L 244.29796 173.52 
L 244.29796 173.52 
L 242.88343 173.52 
z
" clip-path="url(#p83820537e7)" style="fill: #ff4500"/>
   </g>
   <g id="patch_120">
    <path d="M 244.29796 173.52 
L 245.71249 173.52 
L 245.71249 173.52 
L 244.29796 173.52 
z
" clip-path="url(#p83820537e7)" style="fill: #ff4500"/>
   </g>
   <g id="patch_121">
    <path d="M 245.71249 173.52 
L 247.12702 173.52 
L 247.12702 173.52 
L 245.71249 173.52 
z
" clip-path="url(#p83820537e7)" style="fill: #ff4500"/>
   </g>
   <g id="patch_122">
    <path d="M 247.12702 173.52 
L 248.54155 173.52 
L 248.54155 173.52 
L 247.12702 173.52 
z
" clip-path="url(#p83820537e7)" style="fill: #ff4500"/>
   </g>
   <g id="patch_123">
    <path d="M 248.54155 173.52 
L 249.95608 173.52 
L 249.95608 173.52 
L 248.54155 173.52 
z
" clip-path="url(#p83820537e7)" style="fill: #ff4500"/>
   </g>
   <g id="patch_124">
    <path d="M 249.95608 173.52 
L 251.37061 173.52 
L 251.37061 173.52 
L 249.95608 173.52 
z
" clip-path="url(#p83820537e7)" style="fill: #ff4500"/>
   </g>
   <g id="patch_125">
    <path d="M 251.37061 173.52 
L 252.78514 173.52 
L 252.78514 173.52 
L 251.37061 173.52 
z
" clip-path="url(#p83820537e7)" style="fill: #ff4500"/>
   </g>
   <g id="patch_126">
    <path d="M 252.78514 173.52 
L 254.19967 173.52 
L 254.19967 173.52 
L 252.78514 173.52 
z
" clip-path="url(#p83820537e7)" style="fill: #ff4500"/>
   </g>
   <g id="patch_127">
    <path d="M 254.19967 173.52 
L 255.6142 173.52 
L 255.6142 173.52 
L 254.19967 173.52 
z
" clip-path="url(#p83820537e7)" style="fill: #ff4500"/>
   </g>
   <g id="patch_128">
    <path d="M 255.6142 173.52 
L 257.02873 173.52 
L 257.02873 173.52 
L 255.6142 173.52 
z
" clip-path="url(#p83820537e7)" style="fill: #ff4500"/>
   </g>
   <g id="patch_129">
    <path d="M 257.02873 173.52 
L 258.44326 173.52 
L 258.44326 173.52 
L 257.02873 173.52 
z
" clip-path="url(#p83820537e7)" style="fill: #ff4500"/>
   </g>
   <g id="patch_130">
    <path d="M 258.44326 173.52 
L 259.85779 173.52 
L 259.85779 173.52 
L 258.44326 173.52 
z
" clip-path="url(#p83820537e7)" style="fill: #ff4500"/>
   </g>
   <g id="patch_131">
    <path d="M 259.85779 173.52 
L 261.27232 173.52 
L 261.27232 173.52 
L 259.85779 173.52 
z
" clip-path="url(#p83820537e7)" style="fill: #ff4500"/>
   </g>
   <g id="patch_132">
    <path d="M 261.27232 173.52 
L 262.68685 173.52 
L 262.68685 173.52 
L 261.27232 173.52 
z
" clip-path="url(#p83820537e7)" style="fill: #ff4500"/>
   </g>
   <g id="patch_133">
    <path d="M 262.68685 173.52 
L 264.10138 173.52 
L 264.10138 173.52 
L 262.68685 173.52 
z
" clip-path="url(#p83820537e7)" style="fill: #ff4500"/>
   </g>
   <g id="patch_134">
    <path d="M 264.10138 173.52 
L 265.51591 173.52 
L 265.51591 150.891429 
L 264.10138 150.891429 
z
" clip-path="url(#p83820537e7)" style="fill: #ff4500"/>
   </g>
   <g id="patch_135">
    <path d="M 265.51591 173.52 
L 266.93044 173.52 
L 266.93044 173.52 
L 265.51591 173.52 
z
" clip-path="url(#p83820537e7)" style="fill: #ff4500"/>
   </g>
   <g id="patch_136">
    <path d="M 266.93044 173.52 
L 268.34497 173.52 
L 268.34497 173.52 
L 266.93044 173.52 
z
" clip-path="url(#p83820537e7)" style="fill: #ff4500"/>
   </g>
   <g id="patch_137">
    <path d="M 268.34497 173.52 
L 269.7595 173.52 
L 269.7595 173.52 
L 268.34497 173.52 
z
" clip-path="url(#p83820537e7)" style="fill: #ff4500"/>
   </g>
   <g id="patch_138">
    <path d="M 269.7595 173.52 
L 271.17403 173.52 
L 271.17403 173.52 
L 269.7595 173.52 
z
" clip-path="url(#p83820537e7)" style="fill: #ff4500"/>
   </g>
   <g id="patch_139">
    <path d="M 271.17403 173.52 
L 272.58856 173.52 
L 272.58856 173.52 
L 271.17403 173.52 
z
" clip-path="url(#p83820537e7)" style="fill: #ff4500"/>
   </g>
   <g id="patch_140">
    <path d="M 272.58856 173.52 
L 274.00309 173.52 
L 274.00309 173.52 
L 272.58856 173.52 
z
" clip-path="url(#p83820537e7)" style="fill: #ff4500"/>
   </g>
   <g id="patch_141">
    <path d="M 274.00309 173.52 
L 275.41762 173.52 
L 275.41762 173.52 
L 274.00309 173.52 
z
" clip-path="url(#p83820537e7)" style="fill: #ff4500"/>
   </g>
   <g id="patch_142">
    <path d="M 275.41762 173.52 
L 276.83215 173.52 
L 276.83215 173.52 
L 275.41762 173.52 
z
" clip-path="url(#p83820537e7)" style="fill: #ff4500"/>
   </g>
   <g id="patch_143">
    <path d="M 276.83215 173.52 
L 278.24668 173.52 
L 278.24668 150.891429 
L 276.83215 150.891429 
z
" clip-path="url(#p83820537e7)" style="fill: #ff4500"/>
   </g>
   <g id="patch_144">
    <path d="M 278.24668 173.52 
L 279.66121 173.52 
L 279.66121 173.52 
L 278.24668 173.52 
z
" clip-path="url(#p83820537e7)" style="fill: #ff4500"/>
   </g>
   <g id="patch_145">
    <path d="M 279.66121 173.52 
L 281.07574 173.52 
L 281.07574 150.891429 
L 279.66121 150.891429 
z
" clip-path="url(#p83820537e7)" style="fill: #ff4500"/>
   </g>
   <g id="patch_146">
    <path d="M 281.07574 173.52 
L 282.49027 173.52 
L 282.49027 150.891429 
L 281.07574 150.891429 
z
" clip-path="url(#p83820537e7)" style="fill: #ff4500"/>
   </g>
   <g id="patch_147">
    <path d="M 282.49027 173.52 
L 283.9048 173.52 
L 283.9048 173.52 
L 282.49027 173.52 
z
" clip-path="url(#p83820537e7)" style="fill: #ff4500"/>
   </g>
   <g id="patch_148">
    <path d="M 283.9048 173.52 
L 285.31933 173.52 
L 285.31933 173.52 
L 283.9048 173.52 
z
" clip-path="url(#p83820537e7)" style="fill: #ff4500"/>
   </g>
   <g id="patch_149">
    <path d="M 285.31933 173.52 
L 286.73386 173.52 
L 286.73386 150.891429 
L 285.31933 150.891429 
z
" clip-path="url(#p83820537e7)" style="fill: #ff4500"/>
   </g>
   <g id="patch_150">
    <path d="M 286.73386 173.52 
L 288.14839 173.52 
L 288.14839 173.52 
L 286.73386 173.52 
z
" clip-path="url(#p83820537e7)" style="fill: #ff4500"/>
   </g>
   <g id="patch_151">
    <path d="M 288.14839 173.52 
L 289.56292 173.52 
L 289.56292 173.52 
L 288.14839 173.52 
z
" clip-path="url(#p83820537e7)" style="fill: #ff4500"/>
   </g>
   <g id="patch_152">
    <path d="M 289.56292 173.52 
L 290.97745 173.52 
L 290.97745 150.891429 
L 289.56292 150.891429 
z
" clip-path="url(#p83820537e7)" style="fill: #ff4500"/>
   </g>
   <g id="patch_153">
    <path d="M 290.97745 173.52 
L 292.39198 173.52 
L 292.39198 173.52 
L 290.97745 173.52 
z
" clip-path="url(#p83820537e7)" style="fill: #ff4500"/>
   </g>
   <g id="patch_154">
    <path d="M 292.39198 173.52 
L 293.80651 173.52 
L 293.80651 173.52 
L 292.39198 173.52 
z
" clip-path="url(#p83820537e7)" style="fill: #ff4500"/>
   </g>
   <g id="patch_155">
    <path d="M 293.80651 173.52 
L 295.22104 173.52 
L 295.22104 173.52 
L 293.80651 173.52 
z
" clip-path="url(#p83820537e7)" style="fill: #ff4500"/>
   </g>
   <g id="patch_156">
    <path d="M 295.22104 173.52 
L 296.63557 173.52 
L 296.63557 173.52 
L 295.22104 173.52 
z
" clip-path="url(#p83820537e7)" style="fill: #ff4500"/>
   </g>
   <g id="patch_157">
    <path d="M 296.63557 173.52 
L 298.0501 173.52 
L 298.0501 173.52 
L 296.63557 173.52 
z
" clip-path="url(#p83820537e7)" style="fill: #ff4500"/>
   </g>
   <g id="patch_158">
    <path d="M 298.0501 173.52 
L 299.46463 173.52 
L 299.46463 173.52 
L 298.0501 173.52 
z
" clip-path="url(#p83820537e7)" style="fill: #ff4500"/>
   </g>
   <g id="patch_159">
    <path d="M 299.46463 173.52 
L 300.87916 173.52 
L 300.87916 173.52 
L 299.46463 173.52 
z
" clip-path="url(#p83820537e7)" style="fill: #ff4500"/>
   </g>
   <g id="patch_160">
    <path d="M 300.87916 173.52 
L 302.29369 173.52 
L 302.29369 173.52 
L 300.87916 173.52 
z
" clip-path="url(#p83820537e7)" style="fill: #ff4500"/>
   </g>
   <g id="patch_161">
    <path d="M 302.29369 173.52 
L 303.70822 173.52 
L 303.70822 173.52 
L 302.29369 173.52 
z
" clip-path="url(#p83820537e7)" style="fill: #ff4500"/>
   </g>
   <g id="patch_162">
    <path d="M 303.70822 173.52 
L 305.12275 173.52 
L 305.12275 173.52 
L 303.70822 173.52 
z
" clip-path="url(#p83820537e7)" style="fill: #ff4500"/>
   </g>
   <g id="patch_163">
    <path d="M 305.12275 173.52 
L 306.53728 173.52 
L 306.53728 173.52 
L 305.12275 173.52 
z
" clip-path="url(#p83820537e7)" style="fill: #ff4500"/>
   </g>
   <g id="patch_164">
    <path d="M 306.53728 173.52 
L 307.95181 173.52 
L 307.95181 173.52 
L 306.53728 173.52 
z
" clip-path="url(#p83820537e7)" style="fill: #ff4500"/>
   </g>
   <g id="patch_165">
    <path d="M 307.95181 173.52 
L 309.36634 173.52 
L 309.36634 173.52 
L 307.95181 173.52 
z
" clip-path="url(#p83820537e7)" style="fill: #ff4500"/>
   </g>
   <g id="patch_166">
    <path d="M 309.36634 173.52 
L 310.78087 173.52 
L 310.78087 173.52 
L 309.36634 173.52 
z
" clip-path="url(#p83820537e7)" style="fill: #ff4500"/>
   </g>
   <g id="patch_167">
    <path d="M 310.78087 173.52 
L 312.1954 173.52 
L 312.1954 173.52 
L 310.78087 173.52 
z
" clip-path="url(#p83820537e7)" style="fill: #ff4500"/>
   </g>
   <g id="patch_168">
    <path d="M 312.1954 173.52 
L 313.60993 173.52 
L 313.60993 173.52 
L 312.1954 173.52 
z
" clip-path="url(#p83820537e7)" style="fill: #ff4500"/>
   </g>
   <g id="patch_169">
    <path d="M 313.60993 173.52 
L 315.02446 173.52 
L 315.02446 150.891429 
L 313.60993 150.891429 
z
" clip-path="url(#p83820537e7)" style="fill: #ff4500"/>
   </g>
   <g id="patch_170">
    <path d="M 315.02446 173.52 
L 316.43899 173.52 
L 316.43899 173.52 
L 315.02446 173.52 
z
" clip-path="url(#p83820537e7)" style="fill: #ff4500"/>
   </g>
   <g id="patch_171">
    <path d="M 316.43899 173.52 
L 317.85352 173.52 
L 317.85352 173.52 
L 316.43899 173.52 
z
" clip-path="url(#p83820537e7)" style="fill: #ff4500"/>
   </g>
   <g id="patch_172">
    <path d="M 317.85352 173.52 
L 319.26805 173.52 
L 319.26805 173.52 
L 317.85352 173.52 
z
" clip-path="url(#p83820537e7)" style="fill: #ff4500"/>
   </g>
   <g id="patch_173">
    <path d="M 319.26805 173.52 
L 320.68258 173.52 
L 320.68258 173.52 
L 319.26805 173.52 
z
" clip-path="url(#p83820537e7)" style="fill: #ff4500"/>
   </g>
   <g id="patch_174">
    <path d="M 320.68258 173.52 
L 322.09711 173.52 
L 322.09711 173.52 
L 320.68258 173.52 
z
" clip-path="url(#p83820537e7)" style="fill: #ff4500"/>
   </g>
   <g id="patch_175">
    <path d="M 322.09711 173.52 
L 323.51164 173.52 
L 323.51164 173.52 
L 322.09711 173.52 
z
" clip-path="url(#p83820537e7)" style="fill: #ff4500"/>
   </g>
   <g id="patch_176">
    <path d="M 323.51164 173.52 
L 324.92617 173.52 
L 324.92617 173.52 
L 323.51164 173.52 
z
" clip-path="url(#p83820537e7)" style="fill: #ff4500"/>
   </g>
   <g id="patch_177">
    <path d="M 324.92617 173.52 
L 326.3407 173.52 
L 326.3407 173.52 
L 324.92617 173.52 
z
" clip-path="url(#p83820537e7)" style="fill: #ff4500"/>
   </g>
   <g id="patch_178">
    <path d="M 326.3407 173.52 
L 327.75523 173.52 
L 327.75523 173.52 
L 326.3407 173.52 
z
" clip-path="url(#p83820537e7)" style="fill: #ff4500"/>
   </g>
   <g id="patch_179">
    <path d="M 327.75523 173.52 
L 329.16976 173.52 
L 329.16976 173.52 
L 327.75523 173.52 
z
" clip-path="url(#p83820537e7)" style="fill: #ff4500"/>
   </g>
   <g id="patch_180">
    <path d="M 329.16976 173.52 
L 330.58429 173.52 
L 330.58429 173.52 
L 329.16976 173.52 
z
" clip-path="url(#p83820537e7)" style="fill: #ff4500"/>
   </g>
   <g id="patch_181">
    <path d="M 330.58429 173.52 
L 331.99882 173.52 
L 331.99882 173.52 
L 330.58429 173.52 
z
" clip-path="url(#p83820537e7)" style="fill: #ff4500"/>
   </g>
   <g id="patch_182">
    <path d="M 331.99882 173.52 
L 333.41335 173.52 
L 333.41335 173.52 
L 331.99882 173.52 
z
" clip-path="url(#p83820537e7)" style="fill: #ff4500"/>
   </g>
   <g id="patch_183">
    <path d="M 333.41335 173.52 
L 334.82788 173.52 
L 334.82788 173.52 
L 333.41335 173.52 
z
" clip-path="url(#p83820537e7)" style="fill: #ff4500"/>
   </g>
   <g id="patch_184">
    <path d="M 334.82788 173.52 
L 336.24241 173.52 
L 336.24241 173.52 
L 334.82788 173.52 
z
" clip-path="url(#p83820537e7)" style="fill: #ff4500"/>
   </g>
   <g id="patch_185">
    <path d="M 336.24241 173.52 
L 337.65694 173.52 
L 337.65694 173.52 
L 336.24241 173.52 
z
" clip-path="url(#p83820537e7)" style="fill: #ff4500"/>
   </g>
   <g id="patch_186">
    <path d="M 337.65694 173.52 
L 339.07147 173.52 
L 339.07147 173.52 
L 337.65694 173.52 
z
" clip-path="url(#p83820537e7)" style="fill: #ff4500"/>
   </g>
   <g id="patch_187">
    <path d="M 339.07147 173.52 
L 340.486 173.52 
L 340.486 173.52 
L 339.07147 173.52 
z
" clip-path="url(#p83820537e7)" style="fill: #ff4500"/>
   </g>
   <g id="patch_188">
    <path d="M 340.486 173.52 
L 341.90053 173.52 
L 341.90053 173.52 
L 340.486 173.52 
z
" clip-path="url(#p83820537e7)" style="fill: #ff4500"/>
   </g>
   <g id="patch_189">
    <path d="M 341.90053 173.52 
L 343.31506 173.52 
L 343.31506 173.52 
L 341.90053 173.52 
z
" clip-path="url(#p83820537e7)" style="fill: #ff4500"/>
   </g>
   <g id="patch_190">
    <path d="M 343.31506 173.52 
L 344.72959 173.52 
L 344.72959 173.52 
L 343.31506 173.52 
z
" clip-path="url(#p83820537e7)" style="fill: #ff4500"/>
   </g>
   <g id="patch_191">
    <path d="M 344.72959 173.52 
L 346.14412 173.52 
L 346.14412 173.52 
L 344.72959 173.52 
z
" clip-path="url(#p83820537e7)" style="fill: #ff4500"/>
   </g>
   <g id="patch_192">
    <path d="M 346.14412 173.52 
L 347.55865 173.52 
L 347.55865 173.52 
L 346.14412 173.52 
z
" clip-path="url(#p83820537e7)" style="fill: #ff4500"/>
   </g>
   <g id="patch_193">
    <path d="M 347.55865 173.52 
L 348.97318 173.52 
L 348.97318 173.52 
L 347.55865 173.52 
z
" clip-path="url(#p83820537e7)" style="fill: #ff4500"/>
   </g>
   <g id="patch_194">
    <path d="M 348.97318 173.52 
L 350.38771 173.52 
L 350.38771 173.52 
L 348.97318 173.52 
z
" clip-path="url(#p83820537e7)" style="fill: #ff4500"/>
   </g>
   <g id="patch_195">
    <path d="M 350.38771 173.52 
L 351.80224 173.52 
L 351.80224 173.52 
L 350.38771 173.52 
z
" clip-path="url(#p83820537e7)" style="fill: #ff4500"/>
   </g>
   <g id="patch_196">
    <path d="M 351.80224 173.52 
L 353.21677 173.52 
L 353.21677 173.52 
L 351.80224 173.52 
z
" clip-path="url(#p83820537e7)" style="fill: #ff4500"/>
   </g>
   <g id="patch_197">
    <path d="M 353.21677 173.52 
L 354.6313 173.52 
L 354.6313 173.52 
L 353.21677 173.52 
z
" clip-path="url(#p83820537e7)" style="fill: #ff4500"/>
   </g>
   <g id="patch_198">
    <path d="M 354.6313 173.52 
L 356.04583 173.52 
L 356.04583 173.52 
L 354.6313 173.52 
z
" clip-path="url(#p83820537e7)" style="fill: #ff4500"/>
   </g>
   <g id="patch_199">
    <path d="M 356.04583 173.52 
L 357.46036 173.52 
L 357.46036 173.52 
L 356.04583 173.52 
z
" clip-path="url(#p83820537e7)" style="fill: #ff4500"/>
   </g>
   <g id="patch_200">
    <path d="M 357.46036 173.52 
L 358.87489 173.52 
L 358.87489 173.52 
L 357.46036 173.52 
z
" clip-path="url(#p83820537e7)" style="fill: #ff4500"/>
   </g>
   <g id="patch_201">
    <path d="M 358.87489 173.52 
L 360.28942 173.52 
L 360.28942 173.52 
L 358.87489 173.52 
z
" clip-path="url(#p83820537e7)" style="fill: #ff4500"/>
   </g>
   <g id="patch_202">
    <path d="M 360.28942 173.52 
L 361.70395 173.52 
L 361.70395 150.891429 
L 360.28942 150.891429 
z
" clip-path="url(#p83820537e7)" style="fill: #ff4500"/>
   </g>
   <g id="matplotlib.axis_1">
    <g id="xtick_1">
     <g id="line2d_1">
      <path d="M 28.57795 173.52 
L 28.57795 7.2 
" clip-path="url(#p83820537e7)" style="fill: none; stroke: #b0b0b0; stroke-width: 0.8; stroke-linecap: square"/>
     </g>
     <g id="line2d_2">
      <defs>
       <path id="m4a5d93731b" d="M 0 0 
L 0 -3.5 
" style="stroke: #000000; stroke-width: 0.8"/>
      </defs>
      <g>
       <use xlink:href="#m4a5d93731b" x="28.57795" y="173.52" style="stroke: #000000; stroke-width: 0.8"/>
      </g>
     </g>
     <g id="text_1">
      <!-- $\mathdefault{0}$ -->
      <g transform="translate(26.08729 183.875092) scale(0.1 -0.1)">
       <defs>
        <path id="MT2MIT-30" d="M 3021 2138 
C 3021 3284 2496 4334 1600 4334 
C 704 4334 179 3284 179 2138 
C 179 966 672 -64 1600 -64 
C 2464 -64 3021 966 3021 2138 
z
M 2406 2139 
C 2406 1198 2323 110 1600 110 
C 928 110 794 1198 794 2139 
C 794 2911 883 4160 1600 4160 
C 2317 4160 2406 2911 2406 2139 
z
" transform="scale(0.015625)"/>
       </defs>
       <use xlink:href="#MT2MIT-30" transform="scale(0.996264)"/>
      </g>
     </g>
    </g>
    <g id="xtick_2">
     <g id="line2d_3">
      <path d="M 45.31795 173.52 
L 45.31795 7.2 
" clip-path="url(#p83820537e7)" style="fill: none; stroke: #b0b0b0; stroke-width: 0.8; stroke-linecap: square"/>
     </g>
     <g id="line2d_4">
      <g>
       <use xlink:href="#m4a5d93731b" x="45.31795" y="173.52" style="stroke: #000000; stroke-width: 0.8"/>
      </g>
     </g>
     <g id="text_2">
      <!-- $\mathdefault{10}$ -->
      <g transform="translate(40.33663 183.875092) scale(0.1 -0.1)">
       <defs>
        <path id="MT2MIT-31" d="M 2483 0 
L 2483 103 
C 2061 103 1907 90 1907 935 
C 1907 941 1907 4352 1907 4352 
L 1818 4352 
L 723 3814 
L 755 3718 
C 992 3821 1050 3840 1133 3840 
C 1331 3840 1357 3666 1357 3446 
L 1357 929 
C 1357 83 1203 103 781 103 
L 781 0 
L 2483 0 
z
" transform="scale(0.015625)"/>
       </defs>
       <use xlink:href="#MT2MIT-31" transform="scale(0.996264)"/>
       <use xlink:href="#MT2MIT-30" transform="translate(49.8132 0) scale(0.996264)"/>
      </g>
     </g>
    </g>
    <g id="xtick_3">
     <g id="line2d_5">
      <path d="M 62.05795 173.52 
L 62.05795 7.2 
" clip-path="url(#p83820537e7)" style="fill: none; stroke: #b0b0b0; stroke-width: 0.8; stroke-linecap: square"/>
     </g>
     <g id="line2d_6">
      <g>
       <use xlink:href="#m4a5d93731b" x="62.05795" y="173.52" style="stroke: #000000; stroke-width: 0.8"/>
      </g>
     </g>
     <g id="text_3">
      <!-- $\mathdefault{20}$ -->
      <g transform="translate(57.07663 183.875092) scale(0.1 -0.1)">
       <defs>
        <path id="MT2MIT-32" d="M 3040 831 
L 2938 850 
C 2746 528 2592 470 2278 470 
L 806 470 
C 1818 1404 2739 2248 2739 3190 
C 2739 3853 2176 4323 1555 4323 
C 934 4323 442 3988 256 3106 
L 397 3106 
C 576 3467 826 3840 1318 3840 
C 1875 3840 2189 3415 2189 2925 
C 2189 2236 1446 1211 186 97 
L 186 0 
L 2707 0 
L 3040 831 
z
" transform="scale(0.015625)"/>
       </defs>
       <use xlink:href="#MT2MIT-32" transform="scale(0.996264)"/>
       <use xlink:href="#MT2MIT-30" transform="translate(49.8132 0) scale(0.996264)"/>
      </g>
     </g>
    </g>
    <g id="xtick_4">
     <g id="line2d_7">
      <path d="M 78.79795 173.52 
L 78.79795 7.2 
" clip-path="url(#p83820537e7)" style="fill: none; stroke: #b0b0b0; stroke-width: 0.8; stroke-linecap: square"/>
     </g>
     <g id="line2d_8">
      <g>
       <use xlink:href="#m4a5d93731b" x="78.79795" y="173.52" style="stroke: #000000; stroke-width: 0.8"/>
      </g>
     </g>
     <g id="text_4">
      <!-- $\mathdefault{30}$ -->
      <g transform="translate(73.81663 183.875092) scale(0.1 -0.1)">
       <defs>
        <path id="MT2MIT-33" d="M 2771 1410 
C 2771 2090 2387 2381 2003 2536 
C 2419 2853 2554 3144 2554 3493 
C 2554 3867 2253 4352 1562 4352 
C 1056 4352 582 4074 365 3377 
L 467 3345 
C 602 3611 864 3940 1325 3940 
C 1779 3940 2048 3627 2048 3270 
C 2048 2772 1664 2408 1082 2275 
L 1069 2141 
C 2067 2141 2310 1490 2310 1094 
C 2310 615 1958 180 1504 180 
C 1094 180 909 543 570 543 
C 454 543 320 434 320 285 
C 320 13 723 -64 1011 -64 
C 2029 -64 2771 524 2771 1410 
z
" transform="scale(0.015625)"/>
       </defs>
       <use xlink:href="#MT2MIT-33" transform="scale(0.996264)"/>
       <use xlink:href="#MT2MIT-30" transform="translate(49.8132 0) scale(0.996264)"/>
      </g>
     </g>
    </g>
    <g id="xtick_5">
     <g id="line2d_9">
      <path d="M 95.53795 173.52 
L 95.53795 7.2 
" clip-path="url(#p83820537e7)" style="fill: none; stroke: #b0b0b0; stroke-width: 0.8; stroke-linecap: square"/>
     </g>
     <g id="line2d_10">
      <g>
       <use xlink:href="#m4a5d93731b" x="95.53795" y="173.52" style="stroke: #000000; stroke-width: 0.8"/>
      </g>
     </g>
     <g id="text_5">
      <!-- $\mathdefault{40}$ -->
      <g transform="translate(90.55663 183.875092) scale(0.1 -0.1)">
       <defs>
        <path id="MT2MIT-34" d="M 3034 1088 
L 3034 1520 
L 2406 1520 
L 2406 4352 
L 2099 4352 
L 243 1533 
L 243 1088 
L 1888 1088 
L 1888 32 
L 2406 32 
L 2406 1088 
L 3034 1088 
z
M 1888 1520 
L 506 1520 
L 1875 3673 
L 1888 3673 
L 1888 1520 
z
" transform="scale(0.015625)"/>
       </defs>
       <use xlink:href="#MT2MIT-34" transform="scale(0.996264)"/>
       <use xlink:href="#MT2MIT-30" transform="translate(49.8132 0) scale(0.996264)"/>
      </g>
     </g>
    </g>
    <g id="xtick_6">
     <g id="line2d_11">
      <path d="M 112.27795 173.52 
L 112.27795 7.2 
" clip-path="url(#p83820537e7)" style="fill: none; stroke: #b0b0b0; stroke-width: 0.8; stroke-linecap: square"/>
     </g>
     <g id="line2d_12">
      <g>
       <use xlink:href="#m4a5d93731b" x="112.27795" y="173.52" style="stroke: #000000; stroke-width: 0.8"/>
      </g>
     </g>
     <g id="text_6">
      <!-- $\mathdefault{50}$ -->
      <g transform="translate(107.29663 183.875092) scale(0.1 -0.1)">
       <defs>
        <path id="MT2MIT-35" d="M 2982 4259 
L 1216 4259 
L 429 2436 
C 525 2456 627 2481 742 2481 
C 1427 2481 2349 2121 2349 1279 
C 2349 630 1888 213 1440 213 
C 1043 213 902 572 538 572 
C 352 572 301 418 301 334 
C 301 110 614 -64 1056 -64 
C 2022 -64 2771 644 2771 1501 
C 2771 2525 1971 2880 1101 2880 
C 1024 2880 941 2876 864 2874 
L 1261 3776 
L 2758 3776 
L 2982 4259 
z
" transform="scale(0.015625)"/>
       </defs>
       <use xlink:href="#MT2MIT-35" transform="scale(0.996264)"/>
       <use xlink:href="#MT2MIT-30" transform="translate(49.8132 0) scale(0.996264)"/>
      </g>
     </g>
    </g>
    <g id="xtick_7">
     <g id="line2d_13">
      <path d="M 129.01795 173.52 
L 129.01795 7.2 
" clip-path="url(#p83820537e7)" style="fill: none; stroke: #b0b0b0; stroke-width: 0.8; stroke-linecap: square"/>
     </g>
     <g id="line2d_14">
      <g>
       <use xlink:href="#m4a5d93731b" x="129.01795" y="173.52" style="stroke: #000000; stroke-width: 0.8"/>
      </g>
     </g>
     <g id="text_7">
      <!-- $\mathdefault{60}$ -->
      <g transform="translate(124.03663 183.875092) scale(0.1 -0.1)">
       <defs>
        <path id="MT2MIT-36" d="M 2989 1453 
C 2989 2167 2490 2688 1856 2688 
C 1530 2688 1261 2585 986 2359 
C 1261 3510 2099 4224 2899 4224 
L 2899 4353 
C 928 4353 301 2668 301 1711 
C 301 701 896 -64 1683 -64 
C 2406 -64 2989 618 2989 1453 
z
M 2445 1132 
C 2445 540 2176 129 1754 129 
C 1088 129 896 1093 896 1608 
C 896 1774 909 1948 947 2160 
C 1229 2346 1446 2417 1670 2417 
C 2323 2417 2445 1672 2445 1132 
z
" transform="scale(0.015625)"/>
       </defs>
       <use xlink:href="#MT2MIT-36" transform="scale(0.996264)"/>
       <use xlink:href="#MT2MIT-30" transform="translate(49.8132 0) scale(0.996264)"/>
      </g>
     </g>
    </g>
    <g id="xtick_8">
     <g id="line2d_15">
      <path d="M 145.75795 173.52 
L 145.75795 7.2 
" clip-path="url(#p83820537e7)" style="fill: none; stroke: #b0b0b0; stroke-width: 0.8; stroke-linecap: square"/>
     </g>
     <g id="line2d_16">
      <g>
       <use xlink:href="#m4a5d93731b" x="145.75795" y="173.52" style="stroke: #000000; stroke-width: 0.8"/>
      </g>
     </g>
     <g id="text_8">
      <!-- $\mathdefault{70}$ -->
      <g transform="translate(140.77663 183.875092) scale(0.1 -0.1)">
       <defs>
        <path id="MT2MIT-37" d="M 2938 4259 
L 589 4259 
L 198 3300 
L 307 3300 
C 531 3653 698 3776 1075 3776 
L 2419 3776 
L 1139 -64 
L 1530 -64 
L 2938 4259 
z
" transform="scale(0.015625)"/>
       </defs>
       <use xlink:href="#MT2MIT-37" transform="scale(0.996264)"/>
       <use xlink:href="#MT2MIT-30" transform="translate(49.8132 0) scale(0.996264)"/>
      </g>
     </g>
    </g>
    <g id="xtick_9">
     <g id="line2d_17">
      <path d="M 162.49795 173.52 
L 162.49795 7.2 
" clip-path="url(#p83820537e7)" style="fill: none; stroke: #b0b0b0; stroke-width: 0.8; stroke-linecap: square"/>
     </g>
     <g id="line2d_18">
      <g>
       <use xlink:href="#m4a5d93731b" x="162.49795" y="173.52" style="stroke: #000000; stroke-width: 0.8"/>
      </g>
     </g>
     <g id="text_9">
      <!-- $\mathdefault{80}$ -->
      <g transform="translate(157.51663 183.875092) scale(0.1 -0.1)">
       <defs>
        <path id="MT2MIT-38" d="M 2835 1003 
C 2835 1454 2630 1807 1850 2386 
C 2336 2662 2720 2958 2720 3434 
C 2720 3922 2259 4353 1581 4353 
C 979 4353 410 3955 410 3350 
C 410 2881 653 2598 1210 2167 
C 595 1698 365 1459 365 977 
C 365 437 851 -64 1594 -64 
C 2464 -64 2835 534 2835 1003 
z
M 2285 3439 
C 2285 2983 2022 2739 1677 2501 
C 1248 2803 877 3138 877 3510 
C 877 3852 1126 4160 1562 4160 
C 2035 4160 2285 3852 2285 3439 
z
M 2374 824 
C 2374 405 2067 129 1651 129 
C 1158 129 845 521 845 1042 
C 845 1524 1082 1801 1370 2051 
C 2074 1511 2374 1248 2374 824 
z
" transform="scale(0.015625)"/>
       </defs>
       <use xlink:href="#MT2MIT-38" transform="scale(0.996264)"/>
       <use xlink:href="#MT2MIT-30" transform="translate(49.8132 0) scale(0.996264)"/>
      </g>
     </g>
    </g>
    <g id="xtick_10">
     <g id="line2d_19">
      <path d="M 179.23795 173.52 
L 179.23795 7.2 
" clip-path="url(#p83820537e7)" style="fill: none; stroke: #b0b0b0; stroke-width: 0.8; stroke-linecap: square"/>
     </g>
     <g id="line2d_20">
      <g>
       <use xlink:href="#m4a5d93731b" x="179.23795" y="173.52" style="stroke: #000000; stroke-width: 0.8"/>
      </g>
     </g>
     <g id="text_10">
      <!-- $\mathdefault{90}$ -->
      <g transform="translate(174.25663 183.875092) scale(0.1 -0.1)">
       <defs>
        <path id="MT2MIT-39" d="M 3098 2578 
C 3098 3588 2502 4353 1715 4353 
C 992 4353 410 3671 410 2835 
C 410 2121 909 1600 1542 1600 
C 1869 1600 2138 1703 2413 1929 
C 2214 735 1299 58 499 58 
L 499 -64 
C 2470 -64 3098 1620 3098 2578 
z
M 2502 2681 
C 2502 2514 2490 2340 2451 2128 
C 2170 1941 1952 1871 1728 1871 
C 1075 1871 954 2617 954 3157 
C 954 3749 1222 4160 1645 4160 
C 2310 4160 2502 3196 2502 2681 
z
" transform="scale(0.015625)"/>
       </defs>
       <use xlink:href="#MT2MIT-39" transform="scale(0.996264)"/>
       <use xlink:href="#MT2MIT-30" transform="translate(49.8132 0) scale(0.996264)"/>
      </g>
     </g>
    </g>
    <g id="xtick_11">
     <g id="line2d_21">
      <path d="M 195.97795 173.52 
L 195.97795 7.2 
" clip-path="url(#p83820537e7)" style="fill: none; stroke: #b0b0b0; stroke-width: 0.8; stroke-linecap: square"/>
     </g>
     <g id="line2d_22">
      <g>
       <use xlink:href="#m4a5d93731b" x="195.97795" y="173.52" style="stroke: #000000; stroke-width: 0.8"/>
      </g>
     </g>
     <g id="text_11">
      <!-- $\mathdefault{100}$ -->
      <g transform="translate(188.50597 183.875092) scale(0.1 -0.1)">
       <use xlink:href="#MT2MIT-31" transform="scale(0.996264)"/>
       <use xlink:href="#MT2MIT-30" transform="translate(49.8132 0) scale(0.996264)"/>
       <use xlink:href="#MT2MIT-30" transform="translate(99.626401 0) scale(0.996264)"/>
      </g>
     </g>
    </g>
    <g id="xtick_12">
     <g id="line2d_23">
      <path d="M 212.71795 173.52 
L 212.71795 7.2 
" clip-path="url(#p83820537e7)" style="fill: none; stroke: #b0b0b0; stroke-width: 0.8; stroke-linecap: square"/>
     </g>
     <g id="line2d_24">
      <g>
       <use xlink:href="#m4a5d93731b" x="212.71795" y="173.52" style="stroke: #000000; stroke-width: 0.8"/>
      </g>
     </g>
     <g id="text_12">
      <!-- $\mathdefault{110}$ -->
      <g transform="translate(205.24597 183.875092) scale(0.1 -0.1)">
       <use xlink:href="#MT2MIT-31" transform="scale(0.996264)"/>
       <use xlink:href="#MT2MIT-31" transform="translate(49.8132 0) scale(0.996264)"/>
       <use xlink:href="#MT2MIT-30" transform="translate(99.626401 0) scale(0.996264)"/>
      </g>
     </g>
    </g>
    <g id="xtick_13">
     <g id="line2d_25">
      <path d="M 229.45795 173.52 
L 229.45795 7.2 
" clip-path="url(#p83820537e7)" style="fill: none; stroke: #b0b0b0; stroke-width: 0.8; stroke-linecap: square"/>
     </g>
     <g id="line2d_26">
      <g>
       <use xlink:href="#m4a5d93731b" x="229.45795" y="173.52" style="stroke: #000000; stroke-width: 0.8"/>
      </g>
     </g>
     <g id="text_13">
      <!-- $\mathdefault{120}$ -->
      <g transform="translate(221.98597 183.875092) scale(0.1 -0.1)">
       <use xlink:href="#MT2MIT-31" transform="scale(0.996264)"/>
       <use xlink:href="#MT2MIT-32" transform="translate(49.8132 0) scale(0.996264)"/>
       <use xlink:href="#MT2MIT-30" transform="translate(99.626401 0) scale(0.996264)"/>
      </g>
     </g>
    </g>
    <g id="xtick_14">
     <g id="line2d_27">
      <path d="M 246.19795 173.52 
L 246.19795 7.2 
" clip-path="url(#p83820537e7)" style="fill: none; stroke: #b0b0b0; stroke-width: 0.8; stroke-linecap: square"/>
     </g>
     <g id="line2d_28">
      <g>
       <use xlink:href="#m4a5d93731b" x="246.19795" y="173.52" style="stroke: #000000; stroke-width: 0.8"/>
      </g>
     </g>
     <g id="text_14">
      <!-- $\mathdefault{130}$ -->
      <g transform="translate(238.72597 183.875092) scale(0.1 -0.1)">
       <use xlink:href="#MT2MIT-31" transform="scale(0.996264)"/>
       <use xlink:href="#MT2MIT-33" transform="translate(49.8132 0) scale(0.996264)"/>
       <use xlink:href="#MT2MIT-30" transform="translate(99.626401 0) scale(0.996264)"/>
      </g>
     </g>
    </g>
    <g id="xtick_15">
     <g id="line2d_29">
      <path d="M 262.93795 173.52 
L 262.93795 7.2 
" clip-path="url(#p83820537e7)" style="fill: none; stroke: #b0b0b0; stroke-width: 0.8; stroke-linecap: square"/>
     </g>
     <g id="line2d_30">
      <g>
       <use xlink:href="#m4a5d93731b" x="262.93795" y="173.52" style="stroke: #000000; stroke-width: 0.8"/>
      </g>
     </g>
     <g id="text_15">
      <!-- $\mathdefault{140}$ -->
      <g transform="translate(255.46597 183.875092) scale(0.1 -0.1)">
       <use xlink:href="#MT2MIT-31" transform="scale(0.996264)"/>
       <use xlink:href="#MT2MIT-34" transform="translate(49.8132 0) scale(0.996264)"/>
       <use xlink:href="#MT2MIT-30" transform="translate(99.626401 0) scale(0.996264)"/>
      </g>
     </g>
    </g>
    <g id="xtick_16">
     <g id="line2d_31">
      <path d="M 279.67795 173.52 
L 279.67795 7.2 
" clip-path="url(#p83820537e7)" style="fill: none; stroke: #b0b0b0; stroke-width: 0.8; stroke-linecap: square"/>
     </g>
     <g id="line2d_32">
      <g>
       <use xlink:href="#m4a5d93731b" x="279.67795" y="173.52" style="stroke: #000000; stroke-width: 0.8"/>
      </g>
     </g>
     <g id="text_16">
      <!-- $\mathdefault{150}$ -->
      <g transform="translate(272.20597 183.875092) scale(0.1 -0.1)">
       <use xlink:href="#MT2MIT-31" transform="scale(0.996264)"/>
       <use xlink:href="#MT2MIT-35" transform="translate(49.8132 0) scale(0.996264)"/>
       <use xlink:href="#MT2MIT-30" transform="translate(99.626401 0) scale(0.996264)"/>
      </g>
     </g>
    </g>
    <g id="xtick_17">
     <g id="line2d_33">
      <path d="M 296.41795 173.52 
L 296.41795 7.2 
" clip-path="url(#p83820537e7)" style="fill: none; stroke: #b0b0b0; stroke-width: 0.8; stroke-linecap: square"/>
     </g>
     <g id="line2d_34">
      <g>
       <use xlink:href="#m4a5d93731b" x="296.41795" y="173.52" style="stroke: #000000; stroke-width: 0.8"/>
      </g>
     </g>
     <g id="text_17">
      <!-- $\mathdefault{160}$ -->
      <g transform="translate(288.94597 183.875092) scale(0.1 -0.1)">
       <use xlink:href="#MT2MIT-31" transform="scale(0.996264)"/>
       <use xlink:href="#MT2MIT-36" transform="translate(49.8132 0) scale(0.996264)"/>
       <use xlink:href="#MT2MIT-30" transform="translate(99.626401 0) scale(0.996264)"/>
      </g>
     </g>
    </g>
    <g id="xtick_18">
     <g id="line2d_35">
      <path d="M 313.15795 173.52 
L 313.15795 7.2 
" clip-path="url(#p83820537e7)" style="fill: none; stroke: #b0b0b0; stroke-width: 0.8; stroke-linecap: square"/>
     </g>
     <g id="line2d_36">
      <g>
       <use xlink:href="#m4a5d93731b" x="313.15795" y="173.52" style="stroke: #000000; stroke-width: 0.8"/>
      </g>
     </g>
     <g id="text_18">
      <!-- $\mathdefault{170}$ -->
      <g transform="translate(305.68597 183.875092) scale(0.1 -0.1)">
       <use xlink:href="#MT2MIT-31" transform="scale(0.996264)"/>
       <use xlink:href="#MT2MIT-37" transform="translate(49.8132 0) scale(0.996264)"/>
       <use xlink:href="#MT2MIT-30" transform="translate(99.626401 0) scale(0.996264)"/>
      </g>
     </g>
    </g>
    <g id="xtick_19">
     <g id="line2d_37">
      <path d="M 329.89795 173.52 
L 329.89795 7.2 
" clip-path="url(#p83820537e7)" style="fill: none; stroke: #b0b0b0; stroke-width: 0.8; stroke-linecap: square"/>
     </g>
     <g id="line2d_38">
      <g>
       <use xlink:href="#m4a5d93731b" x="329.89795" y="173.52" style="stroke: #000000; stroke-width: 0.8"/>
      </g>
     </g>
     <g id="text_19">
      <!-- $\mathdefault{180}$ -->
      <g transform="translate(322.42597 183.875092) scale(0.1 -0.1)">
       <use xlink:href="#MT2MIT-31" transform="scale(0.996264)"/>
       <use xlink:href="#MT2MIT-38" transform="translate(49.8132 0) scale(0.996264)"/>
       <use xlink:href="#MT2MIT-30" transform="translate(99.626401 0) scale(0.996264)"/>
      </g>
     </g>
    </g>
    <g id="xtick_20">
     <g id="line2d_39">
      <path d="M 346.63795 173.52 
L 346.63795 7.2 
" clip-path="url(#p83820537e7)" style="fill: none; stroke: #b0b0b0; stroke-width: 0.8; stroke-linecap: square"/>
     </g>
     <g id="line2d_40">
      <g>
       <use xlink:href="#m4a5d93731b" x="346.63795" y="173.52" style="stroke: #000000; stroke-width: 0.8"/>
      </g>
     </g>
     <g id="text_20">
      <!-- $\mathdefault{190}$ -->
      <g transform="translate(339.16597 183.875092) scale(0.1 -0.1)">
       <use xlink:href="#MT2MIT-31" transform="scale(0.996264)"/>
       <use xlink:href="#MT2MIT-39" transform="translate(49.8132 0) scale(0.996264)"/>
       <use xlink:href="#MT2MIT-30" transform="translate(99.626401 0) scale(0.996264)"/>
      </g>
     </g>
    </g>
    <g id="xtick_21">
     <g id="line2d_41">
      <path d="M 363.37795 173.52 
L 363.37795 7.2 
" clip-path="url(#p83820537e7)" style="fill: none; stroke: #b0b0b0; stroke-width: 0.8; stroke-linecap: square"/>
     </g>
     <g id="line2d_42">
      <g>
       <use xlink:href="#m4a5d93731b" x="363.37795" y="173.52" style="stroke: #000000; stroke-width: 0.8"/>
      </g>
     </g>
     <g id="text_21">
      <!-- $\mathdefault{200}$ -->
      <g transform="translate(355.90597 183.875092) scale(0.1 -0.1)">
       <use xlink:href="#MT2MIT-32" transform="scale(0.996264)"/>
       <use xlink:href="#MT2MIT-30" transform="translate(49.8132 0) scale(0.996264)"/>
       <use xlink:href="#MT2MIT-30" transform="translate(99.626401 0) scale(0.996264)"/>
      </g>
     </g>
    </g>
    <g id="text_22">
     <!-- $\mathrm{number}$ -->
     <g transform="translate(180.760016 196.771722) scale(0.1 -0.1)">
      <defs>
       <path id="TeXGyreTermesX-Regular-6e" d="M 3104 32 
L 3104 128 
C 2790 160 2714 237 2714 550 
L 2714 2016 
C 2714 2618 2432 2976 1958 2976 
C 1664 2976 1466 2867 1030 2458 
L 1030 2963 
L 986 2976 
C 672 2861 454 2790 102 2688 
L 102 2579 
C 141 2598 205 2605 275 2605 
C 454 2605 512 2509 512 2195 
L 512 608 
C 512 243 442 154 115 128 
L 115 32 
L 1472 32 
L 1472 128 
C 1146 154 1050 230 1050 461 
L 1050 2259 
C 1357 2547 1498 2624 1709 2624 
C 2022 2624 2176 2426 2176 2003 
L 2176 666 
C 2176 262 2093 154 1773 128 
L 1773 32 
L 3104 32 
z
" transform="scale(0.015625)"/>
       <path id="TeXGyreTermesX-Regular-75" d="M 3066 230 
L 3066 320 
L 3034 320 
C 2739 320 2669 390 2669 685 
L 2669 2880 
L 1658 2880 
L 1658 2758 
C 2054 2758 2131 2694 2131 2375 
L 2131 875 
C 2131 703 2099 607 2022 550 
C 1843 397 1645 320 1446 320 
C 1197 320 992 537 992 805 
L 992 2880 
L 58 2880 
L 58 2778 
C 365 2778 454 2682 454 2387 
L 454 770 
C 454 263 762 -64 1229 -64 
C 1466 -64 1715 38 1888 211 
L 2163 486 
L 2163 -45 
L 2189 -58 
C 2509 70 2739 141 3066 230 
z
" transform="scale(0.015625)"/>
       <path id="TeXGyreTermesX-Regular-6d" d="M 4960 0 
L 4960 96 
L 4794 115 
C 4602 115 4518 230 4518 480 
L 4518 1802 
C 4518 2559 4269 2944 3776 2944 
C 3405 2944 3078 2778 2733 2407 
C 2618 2771 2400 2944 2054 2944 
C 1773 2944 1594 2854 1062 2451 
L 1062 2931 
L 1018 2944 
C 691 2822 474 2752 122 2656 
L 122 2547 
C 205 2566 256 2573 326 2573 
C 493 2573 550 2470 550 2162 
L 550 539 
C 550 192 461 96 102 96 
L 102 0 
L 1523 0 
L 1523 96 
C 1184 96 1088 166 1088 418 
L 1088 2234 
C 1088 2234 1139 2310 1184 2355 
C 1344 2502 1619 2611 1843 2611 
C 2125 2611 2266 2385 2266 1932 
L 2266 528 
C 2266 167 2195 96 1830 96 
L 1830 0 
L 3264 0 
L 3264 96 
C 2899 96 2803 205 2803 603 
L 2803 2221 
C 2995 2496 3206 2611 3501 2611 
C 3866 2611 3981 2438 3981 1907 
L 3981 557 
C 3981 192 3930 141 3558 96 
L 3558 0 
L 4960 0 
z
" transform="scale(0.015625)"/>
       <path id="TeXGyreTermesX-Regular-62" d="M 2995 1555 
C 2995 2342 2509 2944 1869 2944 
C 1478 2944 1107 2714 979 2400 
L 979 4364 
L 947 4377 
C 678 4281 506 4230 205 4147 
L 19 4096 
L 19 3994 
C 58 4000 83 4000 128 4000 
C 384 4000 442 3942 442 3673 
L 442 347 
C 442 147 986 -64 1498 -64 
C 2342 -64 2995 640 2995 1555 
z
M 2432 1261 
C 2432 550 2125 141 1600 141 
C 1267 141 979 288 979 448 
L 979 2061 
C 979 2310 1280 2541 1613 2541 
C 2112 2541 2432 2042 2432 1261 
z
" transform="scale(0.015625)"/>
       <path id="TeXGyreTermesX-Regular-65" d="M 2714 1008 
L 2611 1053 
C 2304 564 2029 378 1619 378 
C 1267 378 998 545 813 892 
C 685 1142 634 1367 621 1779 
L 2592 1779 
C 2541 2193 2477 2377 2317 2581 
C 2125 2811 1830 2944 1498 2944 
C 704 2944 160 2304 160 1370 
C 160 486 621 -64 1357 -64 
C 1971 -64 2445 315 2714 1008 
z
M 1939 1984 
L 634 1984 
C 704 2485 922 2714 1312 2714 
C 1702 2714 1856 2535 1939 1984 
z
" transform="scale(0.015625)"/>
       <path id="TeXGyreTermesX-Regular-72" d="M 2144 2605 
C 2144 2816 2010 2944 1792 2944 
C 1523 2944 1338 2797 1024 2343 
L 1024 2931 
L 992 2944 
C 653 2803 422 2721 45 2599 
L 45 2496 
C 134 2515 192 2522 269 2522 
C 429 2522 486 2419 486 2138 
L 486 538 
C 486 218 442 173 32 96 
L 32 0 
L 1568 0 
L 1568 102 
C 1133 102 1024 199 1024 565 
L 1024 2013 
C 1024 2219 1299 2541 1472 2541 
C 1510 2541 1568 2509 1638 2445 
C 1741 2355 1811 2317 1894 2317 
C 2048 2317 2144 2426 2144 2605 
z
" transform="scale(0.015625)"/>
      </defs>
      <use xlink:href="#TeXGyreTermesX-Regular-6e" transform="scale(0.996264)"/>
      <use xlink:href="#TeXGyreTermesX-Regular-75" transform="translate(49.8132 0) scale(0.996264)"/>
      <use xlink:href="#TeXGyreTermesX-Regular-6d" transform="translate(99.626401 0) scale(0.996264)"/>
      <use xlink:href="#TeXGyreTermesX-Regular-62" transform="translate(177.135729 0) scale(0.996264)"/>
      <use xlink:href="#TeXGyreTermesX-Regular-65" transform="translate(226.948929 0) scale(0.996264)"/>
      <use xlink:href="#TeXGyreTermesX-Regular-72" transform="translate(271.183076 0) scale(0.996264)"/>
     </g>
    </g>
   </g>
   <g id="matplotlib.axis_2">
    <g id="ytick_1">
     <g id="line2d_43">
      <path d="M 28.57795 173.52 
L 363.37795 173.52 
" clip-path="url(#p83820537e7)" style="fill: none; stroke: #b0b0b0; stroke-width: 0.8; stroke-linecap: square"/>
     </g>
     <g id="line2d_44">
      <defs>
       <path id="m44ebf7ed8c" d="M 0 0 
L 3.5 0 
" style="stroke: #000000; stroke-width: 0.8"/>
      </defs>
      <g>
       <use xlink:href="#m44ebf7ed8c" x="28.57795" y="173.52" style="stroke: #000000; stroke-width: 0.8"/>
      </g>
     </g>
     <g id="text_23">
      <!-- $\mathdefault{0}$ -->
      <g transform="translate(20.09663 176.947546) scale(0.1 -0.1)">
       <use xlink:href="#MT2MIT-30" transform="scale(0.996264)"/>
      </g>
     </g>
    </g>
    <g id="ytick_2">
     <g id="line2d_45">
      <path d="M 28.57795 150.891429 
L 363.37795 150.891429 
" clip-path="url(#p83820537e7)" style="fill: none; stroke: #b0b0b0; stroke-width: 0.8; stroke-linecap: square"/>
     </g>
     <g id="line2d_46">
      <g>
       <use xlink:href="#m44ebf7ed8c" x="28.57795" y="150.891429" style="stroke: #000000; stroke-width: 0.8"/>
      </g>
     </g>
     <g id="text_24">
      <!-- $\mathdefault{1}$ -->
      <g transform="translate(20.09663 154.318974) scale(0.1 -0.1)">
       <use xlink:href="#MT2MIT-31" transform="scale(0.996264)"/>
      </g>
     </g>
    </g>
    <g id="ytick_3">
     <g id="line2d_47">
      <path d="M 28.57795 128.262857 
L 363.37795 128.262857 
" clip-path="url(#p83820537e7)" style="fill: none; stroke: #b0b0b0; stroke-width: 0.8; stroke-linecap: square"/>
     </g>
     <g id="line2d_48">
      <g>
       <use xlink:href="#m44ebf7ed8c" x="28.57795" y="128.262857" style="stroke: #000000; stroke-width: 0.8"/>
      </g>
     </g>
     <g id="text_25">
      <!-- $\mathdefault{2}$ -->
      <g transform="translate(20.09663 131.690403) scale(0.1 -0.1)">
       <use xlink:href="#MT2MIT-32" transform="scale(0.996264)"/>
      </g>
     </g>
    </g>
    <g id="ytick_4">
     <g id="line2d_49">
      <path d="M 28.57795 105.634286 
L 363.37795 105.634286 
" clip-path="url(#p83820537e7)" style="fill: none; stroke: #b0b0b0; stroke-width: 0.8; stroke-linecap: square"/>
     </g>
     <g id="line2d_50">
      <g>
       <use xlink:href="#m44ebf7ed8c" x="28.57795" y="105.634286" style="stroke: #000000; stroke-width: 0.8"/>
      </g>
     </g>
     <g id="text_26">
      <!-- $\mathdefault{3}$ -->
      <g transform="translate(20.09663 109.061832) scale(0.1 -0.1)">
       <use xlink:href="#MT2MIT-33" transform="scale(0.996264)"/>
      </g>
     </g>
    </g>
    <g id="ytick_5">
     <g id="line2d_51">
      <path d="M 28.57795 83.005714 
L 363.37795 83.005714 
" clip-path="url(#p83820537e7)" style="fill: none; stroke: #b0b0b0; stroke-width: 0.8; stroke-linecap: square"/>
     </g>
     <g id="line2d_52">
      <g>
       <use xlink:href="#m44ebf7ed8c" x="28.57795" y="83.005714" style="stroke: #000000; stroke-width: 0.8"/>
      </g>
     </g>
     <g id="text_27">
      <!-- $\mathdefault{4}$ -->
      <g transform="translate(20.09663 86.43326) scale(0.1 -0.1)">
       <use xlink:href="#MT2MIT-34" transform="scale(0.996264)"/>
      </g>
     </g>
    </g>
    <g id="ytick_6">
     <g id="line2d_53">
      <path d="M 28.57795 60.377143 
L 363.37795 60.377143 
" clip-path="url(#p83820537e7)" style="fill: none; stroke: #b0b0b0; stroke-width: 0.8; stroke-linecap: square"/>
     </g>
     <g id="line2d_54">
      <g>
       <use xlink:href="#m44ebf7ed8c" x="28.57795" y="60.377143" style="stroke: #000000; stroke-width: 0.8"/>
      </g>
     </g>
     <g id="text_28">
      <!-- $\mathdefault{5}$ -->
      <g transform="translate(20.09663 63.804689) scale(0.1 -0.1)">
       <use xlink:href="#MT2MIT-35" transform="scale(0.996264)"/>
      </g>
     </g>
    </g>
    <g id="ytick_7">
     <g id="line2d_55">
      <path d="M 28.57795 37.748571 
L 363.37795 37.748571 
" clip-path="url(#p83820537e7)" style="fill: none; stroke: #b0b0b0; stroke-width: 0.8; stroke-linecap: square"/>
     </g>
     <g id="line2d_56">
      <g>
       <use xlink:href="#m44ebf7ed8c" x="28.57795" y="37.748571" style="stroke: #000000; stroke-width: 0.8"/>
      </g>
     </g>
     <g id="text_29">
      <!-- $\mathdefault{6}$ -->
      <g transform="translate(20.09663 41.176117) scale(0.1 -0.1)">
       <use xlink:href="#MT2MIT-36" transform="scale(0.996264)"/>
      </g>
     </g>
    </g>
    <g id="ytick_8">
     <g id="line2d_57">
      <path d="M 28.57795 15.12 
L 363.37795 15.12 
" clip-path="url(#p83820537e7)" style="fill: none; stroke: #b0b0b0; stroke-width: 0.8; stroke-linecap: square"/>
     </g>
     <g id="line2d_58">
      <g>
       <use xlink:href="#m44ebf7ed8c" x="28.57795" y="15.12" style="stroke: #000000; stroke-width: 0.8"/>
      </g>
     </g>
     <g id="text_30">
      <!-- $\mathdefault{7}$ -->
      <g transform="translate(20.09663 18.547546) scale(0.1 -0.1)">
       <use xlink:href="#MT2MIT-37" transform="scale(0.996264)"/>
      </g>
     </g>
    </g>
    <g id="text_31">
     <!-- $\mathrm{count}$ -->
     <g transform="translate(14.055092 101.428494) rotate(-90) scale(0.1 -0.1)">
      <defs>
       <path id="TeXGyreTermesX-Regular-63" d="M 2637 942 
L 2547 999 
C 2240 550 2010 397 1645 397 
C 1056 397 653 909 653 1645 
C 653 2310 1005 2758 1523 2758 
C 1754 2758 1837 2688 1901 2451 
L 1939 2310 
C 1990 2125 2106 2016 2246 2016 
C 2413 2016 2547 2138 2547 2285 
C 2547 2643 2099 2944 1562 2944 
C 1261 2944 954 2829 698 2618 
C 352 2330 160 1888 160 1357 
C 160 531 666 -64 1376 -64 
C 1651 -64 1894 26 2112 205 
C 2304 358 2432 545 2637 942 
z
" transform="scale(0.015625)"/>
       <path id="TeXGyreTermesX-Regular-6f" d="M 3008 1498 
C 3008 2336 2419 2944 1600 2944 
C 768 2944 186 2330 186 1446 
C 186 582 781 -64 1587 -64 
C 2394 -64 3008 614 3008 1498 
z
M 2432 1274 
C 2432 550 2144 115 1664 115 
C 1414 115 1178 269 1043 525 
C 864 858 762 1306 762 1760 
C 762 2368 1062 2765 1517 2765 
C 2054 2765 2432 2150 2432 1274 
z
" transform="scale(0.015625)"/>
       <path id="TeXGyreTermesX-Regular-74" d="M 1786 422 
L 1702 493 
C 1562 326 1459 269 1318 269 
C 1082 269 986 435 986 845 
L 986 2675 
L 1632 2675 
L 1632 2880 
L 986 2880 
L 986 3622 
C 986 3686 973 3706 941 3706 
C 902 3642 858 3584 813 3526 
C 576 3174 358 2938 192 2836 
C 122 2785 83 2740 83 2697 
C 83 2675 90 2675 109 2675 
L 448 2675 
L 448 749 
C 448 211 640 -64 1011 -64 
C 1331 -64 1574 90 1786 422 
z
" transform="scale(0.015625)"/>
      </defs>
      <use xlink:href="#TeXGyreTermesX-Regular-63" transform="scale(0.996264)"/>
      <use xlink:href="#TeXGyreTermesX-Regular-6f" transform="translate(44.234146 0) scale(0.996264)"/>
      <use xlink:href="#TeXGyreTermesX-Regular-75" transform="translate(94.047347 0) scale(0.996264)"/>
      <use xlink:href="#TeXGyreTermesX-Regular-6e" transform="translate(143.860547 0) scale(0.996264)"/>
      <use xlink:href="#TeXGyreTermesX-Regular-74" transform="translate(193.673748 0) scale(0.996264)"/>
     </g>
    </g>
   </g>
   <g id="patch_203">
    <path d="M 28.57795 173.52 
L 28.57795 7.2 
" style="fill: none; stroke: #000000; stroke-width: 0.8; stroke-linejoin: miter; stroke-linecap: square"/>
   </g>
   <g id="patch_204">
    <path d="M 363.37795 173.52 
L 363.37795 7.2 
" style="fill: none; stroke: #000000; stroke-width: 0.8; stroke-linejoin: miter; stroke-linecap: square"/>
   </g>
   <g id="patch_205">
    <path d="M 28.57795 173.52 
L 363.37795 173.52 
" style="fill: none; stroke: #000000; stroke-width: 0.8; stroke-linejoin: miter; stroke-linecap: square"/>
   </g>
   <g id="patch_206">
    <path d="M 28.57795 7.2 
L 363.37795 7.2 
" style="fill: none; stroke: #000000; stroke-width: 0.8; stroke-linejoin: miter; stroke-linecap: square"/>
   </g>
  </g>
 </g>
 <defs>
  <clipPath id="p83820537e7">
   <rect x="28.57795" y="7.2" width="334.8" height="166.32"/>
  </clipPath>
 </defs>
</svg>
